<svg width="551" height="187" viewBox="0 0 551 187" fill="none" xmlns="http://www.w3.org/2000/svg">
<path d="M77.3128 53.1551C82.8173 36.9217 98.0531 26 115.194 26H495.2C522.589 26 541.877 52.9062 533.081 78.8449L505.687 159.634C500.183 175.867 484.947 186.789 467.806 186.789H87.8002C60.4109 186.789 41.1234 159.883 49.9187 133.944L77.3128 53.1551Z" fill="#222A41"/>
<path d="M463.2 4.63469H83.1943C64.1824 4.63469 47.2839 16.7483 41.1787 34.7533L13.7846 115.542C4.02944 144.312 25.4219 174.154 55.8002 174.154H435.806C454.818 174.154 471.716 162.041 477.821 144.036L505.215 63.2467C514.971 34.4773 493.578 4.63469 463.2 4.63469Z" fill="url(#paint0_linear_690_13)" stroke="#222A41" stroke-width="8.73063"/>
<path d="M260.512 106.452C257.584 108.283 254.157 109.062 250.857 108.712C249.655 108.556 248.485 108.556 247.327 108.283C246.671 108.127 245.941 107.894 245.534 107.387C245.163 106.958 245.111 106.374 245.096 105.829C245.051 104.192 245.202 102.556 245.352 100.919C245.361 100.725 245.487 99.6336 245.457 99.4388C245.492 95.1141 245.177 90.7893 245.251 86.4645C245.285 84.8281 245.444 82.9969 246.403 81.5943C247.194 80.4644 248.551 79.7631 249.855 79.3735C251.827 78.867 253.859 78.789 255.85 78.7501C257.06 78.7111 258.268 78.7501 259.426 79.0228C261.238 79.4904 262.987 80.5034 264.214 81.867C264.363 82.0229 264.995 82.7242 265.105 82.88C266.167 84.4385 266.827 86.2697 267.175 88.1009C267.945 91.8413 267.449 96.0102 266.04 99.6336C265.385 101.231 264.536 102.79 263.346 104.114C262.526 105.01 261.554 105.829 260.512 106.452ZM253.476 100.647C253.781 100.802 254.648 100.608 254.964 100.53C255.396 100.452 255.756 100.257 256.115 100.062C256.636 99.7505 257.048 99.244 257.385 98.6985C257.972 97.7635 258.219 96.5946 258.386 95.4647C258.65 93.9062 258.68 92.3478 258.593 90.7893C258.522 89.7373 258.255 88.7243 257.749 87.8282C257.463 87.2438 257.138 86.6593 256.646 86.3087C256.268 86.0359 255.727 85.9191 255.22 85.9191C254.829 85.958 253.965 86.0749 253.753 86.4645C253.456 87.01 253.473 89.2698 253.484 89.8932C253.427 91.1789 253.22 98.5037 253.085 99.7895C253.116 99.9843 253.326 100.53 253.476 100.647ZM283.135 108.049C281.624 108.712 279.931 109.062 278.3 108.907C276.589 108.79 274.823 108.166 273.425 107.153C271.759 106.023 270.431 104.309 269.616 102.439C268.946 100.841 268.636 99.0492 268.674 97.2959C268.741 94.0231 269.557 90.5555 271.284 87.6723C272.167 86.2308 273.358 84.8671 274.766 83.893C275.852 83.1528 277.046 82.6073 278.308 82.2956C280.08 81.906 281.951 81.9449 283.69 82.2956C284.734 82.4904 285.731 82.88 286.562 83.5034C287.241 84.0099 287.795 84.7112 288.151 85.4905C288.615 86.4645 288.799 87.5944 288.749 88.7243C288.686 90.1269 288.273 91.5296 287.592 92.8153C286.784 94.3348 285.628 95.7764 284.219 96.7894C283.414 97.3349 279.933 99.3219 279.024 99.5947C279.082 100.062 279.139 100.53 279.437 100.841C280.181 101.66 281.548 100.725 282.434 100.101C282.958 99.7116 285.266 97.8024 285.785 97.5297C286.304 97.257 286.931 97.179 287.47 97.3349C288.086 97.5297 288.572 97.9972 288.899 98.5427C289.302 99.1271 289.424 99.9064 289.43 100.647C289.407 102.049 288.756 103.53 287.809 104.66C286.574 106.14 284.886 107.27 283.135 108.049ZM278.428 94.5686C278.604 94.9972 279.267 94.9972 279.74 94.8803C281.278 94.4907 282.825 92.153 283.089 90.5945C283.145 90.2049 283.164 89.7763 282.983 89.4646C282.659 88.8412 281.83 89.075 281.191 89.4256C280.432 89.8152 279.74 90.4776 279.356 91.2179C278.933 91.9581 278.11 93.8283 278.428 94.5686ZM296.302 108.712C295.245 108.79 294.12 108.673 293.119 108.361C292.35 108.127 291.716 107.465 291.357 106.764C291.071 106.179 291.024 105.478 291.014 104.816C291.11 100.88 291.832 96.9063 292.007 92.9712C292.057 91.8413 291.772 86.8152 292.132 85.7242C292.802 83.8151 295.424 82.7242 297.403 82.958C298.062 83.0359 298.71 83.3865 299.157 83.8541C300.018 84.6723 300.553 85.8022 300.774 86.971C302.291 85.2957 305.58 84.1268 307.485 85.1398C308.706 85.7632 309.585 87.049 310.191 88.3347C311.723 86.3087 314.092 84.7892 316.537 84.1658C317.996 83.8151 319.636 83.7762 321.015 84.3216C322.202 84.8281 323.247 85.8801 323.779 87.0879C324.527 88.6853 324.558 90.6334 324.285 92.3867C323.965 94.3348 323.218 96.2439 323.326 98.192C323.473 100.179 324.522 102.01 324.472 104.036C324.423 106.023 322.739 107.933 320.737 108.244C319.164 108.517 317.352 108.049 316.19 106.997C315.476 106.374 315.129 105.4 314.898 104.465C314.639 103.257 314.616 102.01 314.672 100.764C314.712 98.9713 314.986 97.179 315.376 95.4257C315.58 94.3348 315.786 93.2049 315.718 92.114C315.667 91.4906 315.54 90.8282 315.134 90.3217C314.693 89.6984 313.995 89.6204 313.311 90.088C312.706 90.5555 312.283 91.2958 312.018 91.9971C311.53 93.3218 311.388 94.7634 311.367 96.1271C311.34 98.5037 311.624 100.88 311.248 103.218C311.091 104.114 310.777 105.049 310.164 105.673C309.067 106.686 306.418 106.608 305.116 106.062C304.35 105.751 303.637 105.127 303.396 104.387C303.024 103.101 303.281 101.699 303.535 100.374C304.086 97.6076 304.721 94.7244 304.375 91.9581C304.325 91.3348 304.241 90.5945 303.749 90.2438C303.485 90.049 303.093 90.088 302.813 90.2438C301.383 90.8282 300.94 93.7894 300.873 95.3089C300.745 98.192 301.4 101.036 300.999 103.919C300.825 105.205 300.297 106.569 299.358 107.504C298.546 108.244 297.36 108.595 296.302 108.712ZM337.072 107.699C335.001 107.777 332.797 107.348 331.048 106.335C330.021 105.751 329.08 104.971 328.421 103.997C327.578 102.79 327.016 101.387 326.69 99.9453C326.039 97.0232 326.221 93.7894 327.054 90.8282C327.512 89.3087 328.164 87.7892 329.194 86.5424C330.391 85.0619 332.114 84.0099 333.925 83.6203C336.722 82.9969 339.625 82.6073 342.416 82.9969C344.432 83.2697 346.142 84.2827 347.399 85.8411C348.47 87.2048 349.135 88.9191 349.449 90.6334C350.001 94.0231 349.522 97.8024 347.902 100.919C346.879 102.867 345.318 104.66 343.472 105.829C341.586 107.036 339.257 107.66 337.072 107.699ZM336.739 98.4648C337.985 99.3999 339.695 98.6596 340.725 97.4128C342.417 95.3089 342.282 92.1919 340.038 90.9062C339.658 90.6724 339.233 90.5945 338.802 90.6334C338.332 90.6724 337.895 90.8672 337.531 91.1399C335.07 93.0101 334.399 96.7115 336.739 98.4648ZM377.305 108.634C374.485 108.907 371.638 108.907 368.835 108.79C368.408 108.751 365.917 108.634 365.49 108.595C364.908 108.517 364.288 108.439 363.754 108.166C363.45 107.971 363.149 107.738 362.967 107.426C362.493 106.686 362.579 105.634 362.698 104.699C363.022 102.673 363.462 100.647 363.747 98.6206C364.371 94.2179 364.685 89.7763 364.332 85.4126C364.308 85.0619 364.01 82.9969 363.986 82.6463C363.98 81.906 364.171 81.1267 364.625 80.5423C365.942 78.9838 369.639 79.1787 371.527 79.6852C371.912 79.802 372.334 79.9579 372.675 80.1917C373.205 80.5423 373.527 81.2047 373.694 81.8281C374.476 84.4385 374.191 87.3606 373.834 90.1269C373.473 93.0101 372.914 95.9323 372.049 98.7375C371.825 99.3999 371.561 100.062 371.413 100.764C372.927 100.919 374.491 100.841 376.017 100.725C376.994 100.686 378.015 100.53 378.983 100.686C379.293 100.725 379.6 100.841 379.824 101.075C380.084 101.348 380.225 101.699 380.325 102.088C380.72 103.725 380.776 106.881 379.364 107.933C378.799 108.361 378.049 108.556 377.305 108.634ZM387.817 88.1399C387.142 88.4126 386.364 88.3737 385.752 88.1009C384.797 87.6334 383.979 86.7373 383.714 85.6853C383.218 83.6593 384.045 80.854 385.993 79.9969C387.149 79.4514 388.514 79.4514 389.756 79.5683C391.038 79.6852 392.637 80.5813 392.656 81.906C392.681 83.1138 392 84.3995 391.066 85.2177C390.742 85.4905 390.342 85.7242 390.055 86.0359C389.358 86.8152 388.73 87.7892 387.817 88.1399ZM388.89 107.075C388.001 107.777 386.743 108.01 385.615 107.933C384.721 107.855 383.762 107.504 383.127 106.881C381.525 105.166 381.645 98.9323 381.868 96.5556C381.962 95.3089 382.097 94.0231 382.501 92.8153C382.727 92.114 383.113 91.3348 383.72 90.8282C384.57 90.1269 385.83 89.8542 386.924 89.8152C387.901 89.7763 388.943 90.0101 389.823 90.3997C390.165 90.5945 390.506 90.8282 390.765 91.1399C391.468 91.9971 391.84 93.2828 391.712 94.4127C391.419 96.6336 390.622 98.7765 390.524 100.997C390.431 102.205 390.454 103.452 390.208 104.621C390.012 105.517 389.618 106.491 388.89 107.075ZM399.436 108.205C398.216 108.439 396.933 108.361 395.824 107.855C395.214 107.543 394.651 107.036 394.287 106.452C393.85 105.751 393.653 104.932 393.572 104.114C393.469 102.906 393.601 101.699 393.81 100.491C393.974 99.4388 394.67 93.3997 394.795 92.3478C394.912 91.4516 394.631 86.3476 394.747 85.4905C394.853 84.8671 395.191 84.2827 395.601 83.8151C396.38 82.958 397.576 82.3735 398.714 82.2177C401.38 81.906 403.184 84.3216 403.418 86.971C404.115 86.1918 405.001 85.5684 405.956 85.1398C407.949 84.1658 410.46 83.8151 412.496 84.5164C414.263 85.1398 415.883 86.4256 416.707 88.062C417.676 89.9711 417.805 92.3478 417.628 94.5686C417.457 96.6725 417.598 98.7765 417.466 100.88C417.368 102.205 417.193 103.53 416.63 104.777C415.81 106.569 414.197 107.777 412.238 107.971C411.022 108.127 409.735 108.127 408.623 107.699C407.933 107.426 407.293 106.919 406.969 106.296C406.502 105.4 406.431 104.348 406.476 103.335C406.574 100.257 407.603 97.257 407.66 94.2179C407.691 93.5166 407.566 92.8153 407.28 92.2309C407.139 91.8802 406.921 91.5296 406.619 91.2958C405.562 90.5166 404.557 92.075 404.188 93.3608C404.001 94.0621 403.851 94.8024 403.781 95.5037C403.443 97.8414 403.416 100.218 403.352 102.556C403.297 103.803 403.392 105.166 402.72 106.257C402.01 107.309 400.692 108.01 399.436 108.205ZM425.849 108.088C424.931 108.556 423.831 108.751 422.781 108.673C421.964 108.634 421.074 108.478 420.433 107.971C419.943 107.582 419.661 106.919 419.571 106.296C419.44 104.855 419.74 103.374 419.922 101.893C420.269 98.4648 420.462 94.9972 420.459 91.5296C420.464 89.6594 420.391 87.7892 420.356 85.9191C420.36 84.945 420.365 83.971 420.525 82.9969C420.641 82.1398 420.953 81.2436 421.529 80.5813C421.776 80.2696 422.099 80.0358 422.419 79.841C423.739 79.1007 425.387 78.867 426.824 79.0228C427.52 79.1397 428.256 79.2566 428.865 79.6072C429.205 79.841 429.543 80.1527 429.681 80.5423C429.785 80.854 429.925 81.2047 429.989 81.5164C430.146 82.3735 430.147 83.2307 430.109 84.0878C430.047 86.3866 429.787 88.7243 429.451 91.0231C430.496 90.3217 435.918 86.7762 437.111 86.2697C437.708 85.997 438.419 85.8022 439.037 85.9191C439.695 86.0359 440.302 86.4256 440.749 86.8931C441.266 87.5555 441.74 88.2957 441.938 89.1139C442.097 89.9321 442.211 90.8672 441.902 91.6854C441.639 92.3478 441.067 92.9322 440.498 93.4387C439.606 94.2179 438.49 94.7634 437.379 95.192C435.912 95.7374 434.377 96.0491 432.949 96.5946C433.62 97.2959 434.372 97.9193 435.208 98.4258C436.079 99.0102 437.072 99.4778 438.026 99.9453C438.905 100.374 439.94 100.764 440.448 101.621C441.251 102.867 440.442 105.283 439.376 106.452C438.594 107.387 437.356 108.049 436.184 108.088C434.583 108.127 432.893 107.543 431.729 106.53C430.3 105.322 429.238 103.764 428.254 102.205C428.16 103.452 428.064 104.738 427.66 105.945C427.386 106.842 426.65 107.621 425.849 108.088Z" fill="#222A41"/>
<path fill-rule="evenodd" clip-rule="evenodd" d="M145.5 30C151.784 30 158.23 30.1623 164.478 30.4278L171.857 30.7817L178.92 31.2021L185.535 31.652L191.577 32.124C198.135 32.6247 204.306 35.4312 209.004 40.0492C213.701 44.6672 216.625 50.8004 217.258 57.3686L217.552 60.503L218.103 67.2142C218.618 74.1689 219 81.7504 219 89C219 96.2496 218.618 103.831 218.103 110.786L217.552 117.497L217.258 120.631C216.624 127.201 213.7 133.335 209.001 137.953C204.302 142.571 198.129 145.377 191.57 145.876L185.543 146.341L178.928 146.798L171.857 147.218L164.478 147.572C158.155 147.847 151.828 147.99 145.5 148C139.172 147.99 132.845 147.847 126.522 147.572L119.143 147.218L112.08 146.798L105.465 146.341L99.4228 145.876C92.8653 145.375 86.6941 142.569 81.9963 137.951C77.2985 133.333 74.3755 127.2 73.7419 120.631L73.448 117.497L72.8967 110.786C72.3369 103.537 72.0378 96.2704 72 89C72 81.7504 72.3822 74.1689 72.8967 67.2142L73.448 60.503L73.7419 57.3686C74.3752 50.8016 77.2972 44.6693 81.9935 40.0514C86.6898 35.4336 92.8592 32.6264 99.4155 32.124L105.45 31.652L112.065 31.2021L119.136 30.7817L126.515 30.4278C132.84 30.1529 139.169 30.0102 145.5 30ZM130.8 71.1156V106.884C130.8 110.292 134.475 112.416 137.415 110.719L168.285 92.835C168.957 92.447 169.515 91.8882 169.903 91.215C170.291 90.5417 170.495 89.7777 170.495 89C170.495 88.2223 170.291 87.4583 169.903 86.785C169.515 86.1118 168.957 85.553 168.285 85.165L137.415 67.288C136.744 66.8995 135.984 66.695 135.209 66.6952C134.435 66.6953 133.674 66.9 133.004 67.2887C132.333 67.6774 131.777 68.2364 131.39 68.9095C131.003 69.5826 130.8 70.346 130.8 71.123V71.1156Z" fill="#222A41"/>
<defs>
<linearGradient id="paint0_linear_690_13" x1="193.207" y1="9" x2="193.207" y2="169.789" gradientUnits="userSpaceOnUse">
<stop stop-color="#EEBD01"/>
<stop offset="1" stop-color="#FF9D00"/>
</linearGradient>
</defs>
</svg>
