<svg width="553" height="195" viewBox="0 0 553 195" fill="none" xmlns="http://www.w3.org/2000/svg">
<path d="M79.3128 61.1551C84.8173 44.9217 100.053 34 117.194 34H497.2C524.589 34 543.877 60.9062 535.081 86.8449L507.687 167.634C502.183 183.867 486.947 194.789 469.806 194.789H89.8002C62.4109 194.789 43.1234 167.883 51.9187 141.944L79.3128 61.1551Z" fill="#222A41"/>
<path d="M85.1943 8.5C64.4106 8.5 45.9371 21.7426 39.263 41.4255L11.8689 122.215C1.20459 153.665 24.5907 186.289 57.8002 186.289H437.806C458.589 186.289 477.063 173.047 483.737 153.364L511.131 72.5745C521.795 41.1238 498.409 8.5 465.2 8.5H85.1943Z" fill="url(#paint0_linear_631_384)" stroke="#222A41" stroke-width="17"/>
<path d="M154.732 86.0257C150.901 88.4216 146.417 89.4411 142.1 88.9824C140.527 88.7784 138.996 88.7784 137.481 88.4216C136.623 88.2177 135.667 87.9118 135.135 87.2491C134.649 86.6884 134.581 85.9237 134.562 85.2101C134.503 83.069 134.7 80.928 134.897 78.787C134.908 78.5321 135.074 77.1047 135.034 76.8498C135.08 71.1914 134.667 65.533 134.765 59.8745C134.808 57.7335 135.016 55.3376 136.271 53.5024C137.306 52.0241 139.082 51.1065 140.788 50.5967C143.369 49.934 146.027 49.8321 148.631 49.7811C150.216 49.7301 151.795 49.7811 153.31 50.1379C155.681 50.7496 157.97 52.075 159.575 53.8592C159.77 54.0631 160.597 54.9807 160.741 55.1846C162.13 57.2237 162.994 59.6196 163.449 62.0156C164.457 66.9093 163.807 72.3639 161.965 77.1047C161.107 79.1948 159.996 81.2339 158.439 82.9671C157.367 84.1395 156.095 85.2101 154.732 86.0257ZM145.526 78.4301C145.926 78.634 147.059 78.3792 147.472 78.2772C148.038 78.1752 148.509 77.9204 148.979 77.6655C149.66 77.2577 150.2 76.595 150.64 75.8813C151.408 74.6578 151.731 73.1285 151.95 71.6502C152.295 69.6111 152.334 67.572 152.221 65.533C152.128 64.1566 151.779 62.8312 151.116 61.6587C150.742 60.8941 150.317 60.1294 149.674 59.6706C149.179 59.3138 148.471 59.1608 147.808 59.1608C147.296 59.2118 146.166 59.3647 145.889 59.8745C145.5 60.5882 145.522 63.5449 145.537 64.3605C145.462 66.0427 145.191 75.6264 145.015 77.3086C145.054 77.5635 145.329 78.2772 145.526 78.4301ZM179.606 87.657C176.897 87.7589 174.014 87.1982 171.725 85.8728C170.381 85.1081 169.151 84.0886 168.288 82.8141C167.185 81.2339 166.45 79.3987 166.023 77.5125C165.172 73.6893 165.41 69.4582 166.5 65.5839C167.098 63.5958 167.951 61.6077 169.299 59.9765C170.865 58.0394 173.12 56.663 175.49 56.1532C179.149 55.3376 182.947 54.8278 186.599 55.3376C189.236 55.6944 191.474 57.0198 193.118 59.0589C194.519 60.8431 195.39 63.0861 195.8 65.3291C196.523 69.764 195.896 74.7088 193.776 78.787C192.439 81.3358 190.396 83.6808 187.981 85.2101C185.513 86.7903 182.466 87.606 179.606 87.657ZM179.171 75.5754C180.801 76.7989 183.038 75.8303 184.386 74.199C186.6 71.4463 186.423 67.3681 183.487 65.6859C182.99 65.38 182.434 65.2781 181.87 65.3291C181.256 65.38 180.683 65.6349 180.208 65.9918C176.987 68.4386 176.109 73.2815 179.171 75.5754ZM212.946 87.0962C210.748 88.3197 207.973 88.7784 205.544 88.3197C203.321 87.8099 201.383 86.6374 200.035 84.8022C198.637 82.9671 197.977 80.5712 197.724 78.2262C197.372 74.6578 197.84 70.9875 198.71 67.4701C199.703 63.4939 202.644 55.8473 206.569 54.7768C208.118 54.369 209.804 54.318 211.319 54.6749C212.685 54.9298 214.131 55.6944 214.794 56.8669C215.412 57.8864 215.349 59.3138 215.042 60.4862C213.788 64.6154 211.273 68.3877 210.27 72.6188C210.025 73.5363 209.929 74.5559 210.141 75.5244C210.298 76.595 211.111 77.8184 212.187 77.7165C212.955 77.6655 213.647 77.0028 214.083 76.3911C215.171 74.8617 215.716 72.9246 216.052 71.0894C216.453 68.9484 216.599 66.8074 216.794 64.7173C216.874 64.0546 217.008 63.341 217.29 62.7292C217.743 61.7097 218.551 60.7411 219.548 60.1294C221.907 58.7021 224.833 59.4667 226.054 61.8626C226.616 62.9841 226.864 64.3095 227.167 65.533C227.886 68.8974 228.495 72.4148 230.204 75.3205C230.538 75.8303 230.973 76.3911 231.523 76.6459C231.875 76.7479 232.233 76.7479 232.543 76.6459C233.997 76.0852 234.555 73.8422 234.417 72.3639C234.162 68.8974 232.877 65.6349 232.62 62.2195C232.522 60.996 232.582 59.6196 233.142 58.4981C233.707 57.2747 235.03 56.2042 236.372 55.8473C238.232 55.3376 240.51 55.7454 242.042 56.8669C243.18 57.6825 243.831 59.1099 244.178 60.4862C244.654 62.4234 244.712 64.5644 244.673 66.6035C244.546 69.4582 244.165 72.3129 243.48 75.1166C242.914 77.5125 242.094 79.9085 240.777 81.9985C239.733 83.6808 238.389 85.2101 236.711 86.2296C235.504 86.9943 234.004 87.453 232.622 87.555C230.68 87.606 228.717 86.9943 227.127 86.0257C225.588 85.0571 224.376 83.6298 223.474 82.1005C222.43 80.3163 221.651 78.3282 220.923 76.3401C220.32 78.4301 219.262 80.4182 218.012 82.1514C216.651 84.0886 214.987 85.9237 212.946 87.0962ZM254.126 88.3197C252.531 88.6255 250.852 88.5236 249.401 87.8609C248.603 87.453 247.867 86.7903 247.39 86.0257C246.819 85.1081 246.56 84.0376 246.454 82.9671C246.32 81.3868 246.492 79.8065 246.766 78.2262C246.98 76.8498 247.891 68.9484 248.054 67.572C248.208 66.3996 247.84 59.7216 247.992 58.6001C248.13 57.7845 248.572 57.0198 249.109 56.4081C250.129 55.2866 251.693 54.5219 253.182 54.318C256.67 53.9102 259.03 57.0708 259.336 60.5372C260.249 59.5177 261.407 58.7021 262.657 58.1413C265.265 56.8669 268.551 56.4081 271.214 57.3257C273.526 58.1413 275.645 59.8235 276.724 61.9646C277.991 64.4624 278.16 67.572 277.929 70.4777C277.705 73.2305 277.89 75.9832 277.717 78.736C277.589 80.4692 277.359 82.2024 276.624 83.8337C275.55 86.1786 273.439 87.7589 270.877 88.0138C269.286 88.2177 267.602 88.2177 266.147 87.657C265.244 87.3001 264.406 86.6374 263.983 85.8218C263.372 84.6493 263.279 83.2729 263.338 81.9475C263.465 77.9204 264.813 73.9951 264.887 70.0189C264.927 69.1013 264.764 68.1838 264.389 67.4191C264.206 66.9603 263.92 66.5015 263.525 66.1957C262.141 65.1761 260.826 67.2152 260.344 68.8974C260.099 69.815 259.903 70.7836 259.811 71.7012C259.37 74.7598 259.334 77.8694 259.25 80.928C259.178 82.5593 259.303 84.3435 258.423 85.7708C257.495 87.1472 255.77 88.0648 254.126 88.3197ZM289.483 88.5745C287.888 88.8804 286.067 88.5236 284.73 87.606C284.184 87.2491 283.745 86.7903 283.411 86.2806C282.365 84.5474 281.632 82.6612 281.159 80.6731C280.31 76.7989 280.441 72.6697 280.773 68.6426C281.081 65.1251 281.39 61.6077 282.154 58.1923C282.354 57.1218 282.657 56.0512 283.059 55.0317C283.464 53.9612 283.972 52.8397 284.869 52.177C285.768 51.4633 287 51.3104 288.176 51.2594C291.905 51.1575 295.899 53.1456 295.375 56.9179C295.217 58.1923 294.856 59.4157 294.496 60.6392C292.574 67.1642 291.191 74.199 292.225 80.826C292.423 82.1005 292.773 83.4259 292.765 84.7513C292.736 85.414 292.656 86.0767 292.322 86.6884C291.818 87.7079 290.615 88.3706 289.483 88.5745ZM310.063 87.657C307.355 87.7589 304.471 87.1982 302.182 85.8728C300.838 85.1081 299.608 84.0886 298.746 82.8141C297.642 81.2339 296.907 79.3987 296.48 77.5125C295.629 73.6893 295.867 69.4582 296.957 65.5839C297.555 63.5958 298.409 61.6077 299.757 59.9765C301.322 58.0394 303.577 56.663 305.947 56.1532C309.606 55.3376 313.405 54.8278 317.056 55.3376C319.694 55.6944 321.931 57.0198 323.576 59.0589C324.977 60.8431 325.847 63.0861 326.258 65.3291C326.98 69.764 326.353 74.7088 324.233 78.787C322.896 81.3358 320.853 83.6808 318.438 85.2101C315.97 86.7903 312.923 87.606 310.063 87.657ZM309.629 75.5754C311.258 76.7989 313.496 75.8303 314.843 74.199C317.057 71.4463 316.881 67.3681 313.945 65.6859C313.448 65.38 312.891 65.2781 312.327 65.3291C311.713 65.38 311.14 65.6349 310.665 65.9918C307.444 68.4386 306.567 73.2815 309.629 75.5754ZM353.611 87.0452C351.629 88.0138 348.982 87.8609 347.086 86.8923C345.939 86.2806 345.073 85.1081 344.563 83.9356C342.916 85.414 340.728 86.4335 338.564 86.8923C336.141 87.453 333.439 87.4021 331.295 86.2806C330.348 85.7708 329.465 84.9552 328.894 84.0376C328.029 82.8141 327.64 81.2339 327.657 79.7046C327.712 77.3086 328.685 74.9127 330.346 73.1285C331.845 71.5482 333.926 70.6307 335.948 69.917C337.814 69.2543 339.774 68.7955 341.596 67.9799C342.115 67.7759 342.585 67.5211 343.058 67.2152C343.846 66.7054 344.706 65.7369 344.28 64.9722C343.615 63.8507 341.354 64.2076 340.065 64.5134C338.257 65.0232 336.904 66.7564 335.045 67.2662C333.545 67.725 331.442 66.8074 330.738 65.431C330.175 64.3095 329.93 62.9331 330.188 61.7097C330.506 60.2823 331.532 59.0079 332.593 58.0903C334.292 56.612 336.38 55.5415 338.548 54.9807C340.718 54.369 342.968 54.2671 345.204 54.471C347.341 54.6239 349.517 55.0317 351.413 56.0003C352.313 56.4081 353.105 56.9688 353.686 57.6825C355.281 59.6706 355.825 62.3724 356.019 64.9212C356.264 68.5916 355.74 72.3639 355.473 76.0852C355.27 78.3792 356.091 80.5712 356.4 82.8141C356.475 83.4259 356.344 84.0886 356.064 84.6493C355.61 85.6689 354.654 86.5355 353.611 87.0452ZM339.708 76.0342C338.968 77.7674 341.677 77.6655 343.063 76.3401C343.22 76.2381 343.535 76.0342 343.542 75.8813C343.643 74.7598 343.741 73.6893 343.993 72.6188C342.943 73.2815 341.846 73.8422 340.892 74.6578C340.417 75.0147 339.937 75.4735 339.708 76.0342ZM371.03 88.4726C368.811 89.0333 366.259 89.0333 364.314 88.0138C362.367 87.0452 360.92 85.1591 359.936 83.171C357.683 78.736 357.778 73.1285 360.176 68.5406C361.069 66.8074 362.317 65.1251 363.99 64.2076C365.615 63.239 367.718 62.9841 369.544 63.239C371.47 63.5449 373.317 64.4624 374.74 65.7369C374.749 63.239 374.757 60.7411 375.121 58.2942C375.288 56.8159 375.611 55.2866 376.236 53.8592C376.633 52.9417 377.238 51.9731 378.079 51.4123C378.816 50.9026 379.746 50.6477 380.62 50.4948C382.466 50.2909 384.438 50.6987 385.979 51.6163C387.219 52.4319 388.385 53.7573 388.523 55.2356C388.666 56.612 387.191 62.2704 386.878 63.5958C386.386 65.482 384.401 75.7284 384.163 77.6655C383.919 79.7046 384.082 81.7946 383.785 83.8847C383.631 85.0571 383.113 86.3825 382.161 87.1472C380.363 88.5745 377.65 87.606 376.192 85.9747C374.709 87.1982 372.885 88.0648 371.03 88.4726ZM371.414 76.3401C371.744 76.9518 372.51 78.0733 373.176 78.0223C373.839 78.0223 374.137 77.0538 374.267 76.442C374.34 75.9323 374.363 75.4225 374.283 74.9127C374.165 72.9756 373.626 70.1719 371.74 70.1209C371.485 70.1209 371.227 70.1719 371.067 70.3248C370.905 70.5287 370.843 70.7836 370.781 71.0385C370.296 72.7717 370.563 74.8108 371.414 76.3401ZM207.168 147.231C205.269 147.486 201.033 147.486 199.874 146.008C199.489 145.498 199.316 144.785 199.348 144.071C199.393 143.051 199.693 142.032 199.891 141.012C201.511 132.091 202.065 123.017 202.105 114.045C202.137 113.332 201.964 112.618 201.945 111.904C201.914 111.446 201.99 110.885 202.314 110.477C202.696 109.916 203.325 109.56 203.948 109.305C205.351 108.744 206.886 108.642 208.363 108.693C209.486 108.693 210.655 108.795 211.658 109.203C212.256 109.509 212.851 109.916 213.236 110.426C214.059 111.446 215.867 116.696 216.321 117.971C217.308 121.029 218.242 124.139 219.176 127.249C219.537 128.319 220.725 132.601 221.506 133.417C222.528 134.538 222.8 131.836 222.919 130.307C222.993 128.625 222.968 126.892 222.889 125.209C222.848 123.833 222.754 122.508 222.506 121.182C222.226 119.449 220.829 112.975 221.314 111.242C221.498 110.528 222.138 109.916 222.815 109.61C223.753 109.152 224.836 108.897 225.917 108.693C227.303 108.489 228.69 108.285 230.061 108.438C230.569 108.489 231.175 108.642 231.567 108.999C232.206 109.56 232.527 110.375 232.801 111.089C234.088 114.3 234.336 117.92 234.234 121.386C234.139 125.821 233.43 130.307 232.371 134.64C231.75 137.138 231.027 139.636 230.005 141.981C229.325 143.51 228.439 145.09 227.12 146.059C226.275 146.722 225.138 147.028 224.113 147.13C222.831 147.282 221.557 147.231 220.344 146.977C219.284 146.722 218.131 146.263 217.454 145.396C216.344 143.969 216.019 142.083 215.433 140.35C213.992 136.017 212.446 131.734 210.69 127.605C211.234 132.601 212.185 137.648 211.451 142.695C211.248 143.816 210.99 145.039 210.186 145.906C209.436 146.722 208.244 147.13 207.168 147.231ZM250.243 145.6C247.534 145.702 244.65 145.141 242.362 143.816C241.018 143.051 239.787 142.032 238.925 140.757C237.822 139.177 237.086 137.342 236.66 135.456C235.808 131.633 236.047 127.401 237.137 123.527C237.735 121.539 238.588 119.551 239.936 117.92C241.502 115.983 243.757 114.606 246.127 114.096C249.786 113.281 253.584 112.771 257.235 113.281C259.873 113.638 262.111 114.963 263.755 117.002C265.156 118.786 266.026 121.029 266.437 123.272C267.159 127.707 266.532 132.652 264.413 136.73C263.075 139.279 261.033 141.624 258.618 143.153C256.149 144.734 253.103 145.549 250.243 145.6ZM249.808 133.519C251.438 134.742 253.675 133.774 255.023 132.142C257.237 129.39 257.06 125.311 254.124 123.629C253.627 123.323 253.071 123.221 252.507 123.272C251.892 123.323 251.32 123.578 250.845 123.935C247.624 126.382 246.746 131.225 249.808 133.519ZM283.582 145.039C281.385 146.263 278.609 146.722 276.18 146.263C273.958 145.753 272.02 144.581 270.672 142.746C269.274 140.91 268.614 138.514 268.361 136.169C268.008 132.601 268.477 128.931 269.347 125.413C270.34 121.437 273.28 113.791 277.206 112.72C278.755 112.312 280.441 112.261 281.956 112.618C283.322 112.873 284.768 113.638 285.431 114.81C286.049 115.83 285.986 117.257 285.679 118.43C284.424 122.559 281.91 126.331 280.906 130.562C280.662 131.48 280.566 132.499 280.778 133.468C280.935 134.538 281.748 135.762 282.824 135.66C283.592 135.609 284.284 134.946 284.72 134.334C285.808 132.805 286.353 130.868 286.689 129.033C287.09 126.892 287.236 124.751 287.43 122.661C287.511 121.998 287.644 121.284 287.927 120.672C288.38 119.653 289.188 118.684 290.185 118.073C292.544 116.645 295.47 117.41 296.691 119.806C297.253 120.927 297.501 122.253 297.804 123.476C298.522 126.841 299.132 130.358 300.84 133.264C301.175 133.774 301.609 134.334 302.159 134.589C302.512 134.691 302.869 134.691 303.18 134.589C304.634 134.028 305.192 131.785 305.053 130.307C304.799 126.841 303.514 123.578 303.257 120.163C303.158 118.939 303.219 117.563 303.779 116.441C304.344 115.218 305.667 114.147 307.009 113.791C308.869 113.281 311.147 113.689 312.679 114.81C313.817 115.626 314.468 117.053 314.815 118.43C315.291 120.367 315.349 122.508 315.31 124.547C315.183 127.401 314.802 130.256 314.116 133.06C313.551 135.456 312.731 137.852 311.414 139.942C310.37 141.624 309.026 143.153 307.348 144.173C306.141 144.938 304.641 145.396 303.258 145.498C301.317 145.549 299.354 144.938 297.764 143.969C296.225 143 295.013 141.573 294.111 140.044C293.067 138.26 292.288 136.271 291.559 134.283C290.957 136.373 289.899 138.361 288.649 140.095C287.287 142.032 285.624 143.867 283.582 145.039ZM326.769 134.385C325.334 135.66 322.677 135.762 321.251 134.538C320.659 134.079 320.282 133.366 320.008 132.652C319.543 131.633 319.237 130.46 318.981 129.339C318.213 125.923 318.221 122.304 318.376 118.786C318.487 116.288 318.753 113.74 319.52 111.395C319.698 110.834 319.927 110.273 320.353 109.865C320.937 109.356 321.714 109.101 322.437 108.897C324.507 108.234 326.857 108.183 328.871 108.795C330.131 109.152 330.962 109.967 331.418 111.191C331.921 112.516 331.751 114.045 331.535 115.473C331.156 118.277 330.066 120.978 329.434 123.731C328.871 126.076 328.663 128.472 328.355 130.817C328.197 132.091 327.776 133.519 326.769 134.385ZM326.762 146.059C325.513 146.62 324.124 146.875 322.85 146.824C321.932 146.824 320.974 146.569 320.284 146.008C319.153 145.039 318.751 142.593 319.376 141.165C319.662 140.452 320.251 139.84 320.786 139.279C321.801 138.26 323.458 137.699 324.769 138.056C325.778 138.311 326.885 138.667 327.723 139.33C328.954 140.35 329.201 142.847 328.469 144.377C328.132 145.09 327.492 145.702 326.762 146.059Z" fill="#222A41"/>
<defs>
<linearGradient id="paint0_linear_631_384" x1="195.207" y1="17" x2="195.207" y2="177.789" gradientUnits="userSpaceOnUse">
<stop stop-color="#EEBD01"/>
<stop offset="1" stop-color="#FF9D00"/>
</linearGradient>
</defs>
</svg>
