<svg width="1920" height="381" viewBox="0 0 1920 381" fill="none" xmlns="http://www.w3.org/2000/svg">
<g filter="url(#filter0_d_645_2)">
<g clip-path="url(#clip0_645_2)">
<rect x="-262.211" y="60.4929" width="2891.61" height="93.6475" rx="46.8238" transform="rotate(3.50094 -262.211 60.4929)" fill="url(#paint0_linear_645_2)"/>
<path d="M-12.059 18.4607L52.0605 22.3834L-81.0768 222.733L-145.196 218.811L-12.059 18.4607Z" fill="#222A41"/>
<path d="M114.169 26.1832L178.289 30.106L45.1514 230.456L-18.9681 226.533L114.169 26.1832Z" fill="#222A41"/>
<path d="M240.397 33.9057L304.517 37.8285L171.379 238.178L107.26 234.256L240.397 33.9057Z" fill="#222A41"/>
<path d="M366.625 41.6283L430.745 45.551L297.608 245.901L233.488 241.978L366.625 41.6283Z" fill="#222A41"/>
<path d="M492.854 49.3508L556.973 53.2736L423.836 253.624L359.716 249.701L492.854 49.3508Z" fill="#222A41"/>
<path d="M619.082 57.0733L683.201 60.9961L550.064 261.346L485.945 257.423L619.082 57.0733Z" fill="#222A41"/>
<path d="M745.31 64.7959L809.429 68.7186L676.292 269.069L612.173 265.146L745.31 64.7959Z" fill="#222A41"/>
<path d="M871.538 72.5184L935.658 76.4412L802.52 276.791L738.401 272.868L871.538 72.5184Z" fill="#222A41"/>
<path d="M997.766 80.2409L1061.89 84.1637L928.749 284.514L864.629 280.591L997.766 80.2409Z" fill="#222A41"/>
<path d="M1123.99 87.9635L1188.11 91.8862L1054.98 292.236L990.857 288.313L1123.99 87.9635Z" fill="#222A41"/>
<path d="M1250.22 95.686L1314.34 99.6088L1181.2 299.959L1117.09 296.036L1250.22 95.686Z" fill="#222A41"/>
<path d="M1376.45 103.409L1440.57 107.331L1307.43 307.681L1243.31 303.758L1376.45 103.409Z" fill="#222A41"/>
<path d="M1502.68 111.131L1566.8 115.054L1433.66 315.404L1369.54 311.481L1502.68 111.131Z" fill="#222A41"/>
<path d="M1628.91 118.854L1693.03 122.776L1559.89 323.126L1495.77 319.204L1628.91 118.854Z" fill="#222A41"/>
<path d="M1755.13 126.576L1819.25 130.499L1686.12 330.849L1622 326.926L1755.13 126.576Z" fill="#222A41"/>
<path d="M1881.36 134.299L1945.48 138.221L1812.35 338.571L1748.23 334.649L1881.36 134.299Z" fill="#222A41"/>
<path d="M2007.59 142.021L2071.71 145.944L1938.57 346.294L1874.45 342.371L2007.59 142.021Z" fill="#222A41"/>
</g>
<rect x="-268.461" y="53.4279" width="2904.95" height="106.988" rx="53.4938" transform="rotate(3.50094 -268.461 53.4279)" stroke="#222A41" stroke-width="13.3401"/>
<g clip-path="url(#clip1_645_2)">
<rect x="-494" y="242.241" width="3045.03" height="93.6475" rx="46.8238" transform="rotate(-4.37414 -494 242.241)" fill="url(#paint1_linear_645_2)"/>
<path d="M54.2403 262.284C52.8205 262.693 51.2745 262.761 49.855 262.519C48.7913 262.35 47.6664 262.036 46.9588 261.29C46.4119 260.681 46.1942 259.797 46.03 258.959C45.7168 257.482 45.6486 255.936 45.5345 254.443C43.5142 254.198 41.4438 254.606 39.4232 255.011C39.6445 256.595 39.816 258.183 39.6393 259.798C39.5433 260.506 39.2943 261.175 38.8885 261.757C38.4329 262.342 37.7171 262.797 37.0359 263.049C35.6772 263.604 34.1389 263.771 32.6772 263.633C31.6211 263.564 30.4541 263.353 29.6967 262.61C28.0826 261.132 27.6415 254.711 27.3745 252.53C26.8562 247.716 26.7818 242.818 26.5581 237.931C26.4937 236.435 26.1213 230.259 26.562 228.824C26.811 228.155 27.2666 227.569 27.8369 227.176C28.5527 226.72 29.4291 226.403 30.2672 226.239C31.7979 225.972 33.4396 225.846 34.9279 226.333C35.5936 226.532 36.2631 226.781 36.8408 227.137C37.2654 227.455 37.5522 227.934 37.7395 228.42C38.1179 229.441 38.1557 230.589 38.1399 231.691C38.1776 232.839 38.1159 233.995 38.1078 235.197C38.073 236.05 38.4535 241.025 38.522 241.92C38.6437 243.512 38.7158 245.108 38.7878 246.703C40.8926 246.092 43.1772 245.867 45.3391 246.002C45.3826 242.646 45.5754 239.279 45.6687 235.919C45.7114 234.515 45.8172 228.702 46.365 227.36C46.6178 226.74 47.1231 226.151 47.6973 225.806C48.4666 225.397 49.3468 225.13 50.1925 225.065C51.7308 224.898 53.4298 224.868 54.8263 225.461C55.4958 225.71 56.1194 226.013 56.6511 226.423C58.3993 227.69 57.5593 232.408 57.3709 234.524C57.2172 235.786 57.3061 242.835 57.2481 244.04C57.1932 247.247 57.1344 250.404 57.2287 253.599C57.27 255.447 57.4682 257.383 57.1077 259.212C56.9582 259.874 56.6632 260.597 56.2 261.083C55.6947 261.672 54.9751 262.078 54.2403 262.284ZM76.4991 259.48C73.8701 259.782 70.9927 259.451 68.6054 258.333C67.2052 257.689 65.8854 256.79 64.8948 255.614C63.6327 254.16 62.6998 252.43 62.0615 250.627C60.7812 246.972 60.5151 242.84 61.1213 238.99C61.4704 237.012 62.0682 235.015 63.1901 233.328C64.4882 231.327 66.5245 229.82 68.7748 229.148C72.2459 228.082 75.8891 227.303 79.509 227.526C82.1224 227.677 84.46 228.799 86.3035 230.659C87.8794 232.29 88.992 234.407 89.6569 236.557C90.8834 240.817 90.8545 245.673 89.2686 249.797C88.2649 252.376 86.5496 254.809 84.3754 256.476C82.1552 258.197 79.2811 259.218 76.4991 259.48ZM74.652 247.763C76.385 248.831 78.4518 247.722 79.5737 246.035C81.4079 243.193 80.7552 239.24 77.6946 237.823C77.1743 237.562 76.6195 237.505 76.0761 237.596C75.4829 237.692 74.9547 237.982 74.5336 238.365C71.6817 240.985 71.3965 245.76 74.652 247.763ZM118.881 255.638C117.063 256.728 114.465 256.777 112.502 255.976C111.313 255.466 110.33 254.391 109.695 253.288C108.263 254.849 106.25 256.004 104.195 256.611C101.899 257.337 99.2582 257.489 97.0354 256.559C96.0521 256.133 95.0958 255.406 94.4303 254.556C93.4436 253.431 92.8779 251.923 92.714 250.434C92.4854 248.1 93.1523 245.697 94.5612 243.838C95.8362 242.189 97.7575 241.142 99.6444 240.297C101.386 239.513 103.242 238.921 104.922 237.992C105.404 237.755 105.833 237.472 106.258 237.139C106.966 236.584 107.69 235.578 107.185 234.866C106.405 233.825 104.243 234.341 103.022 234.735C101.319 235.365 100.204 237.152 98.4516 237.786C97.0432 238.344 94.8853 237.609 94.0364 236.323C93.3557 235.274 92.9545 233.953 93.0621 232.744C93.2043 231.332 94.0544 230.016 94.9808 229.045C96.4624 227.48 98.3723 226.284 100.42 225.577C102.464 224.82 104.645 224.553 106.849 224.584C108.95 224.574 111.119 224.808 113.082 225.609C114.008 225.938 114.846 226.425 115.496 227.075C117.286 228.89 118.134 231.477 118.623 233.941C119.295 237.493 119.228 241.201 119.407 244.84C119.478 247.086 120.537 249.157 121.103 251.315C121.248 251.904 121.198 252.559 120.991 253.125C120.669 254.15 119.838 255.065 118.881 255.638ZM104.031 245.966C103.514 247.707 106.143 247.406 107.337 246.013C107.479 245.902 107.762 245.68 107.751 245.531C107.717 244.433 107.686 243.385 107.806 242.325C106.86 243.047 105.857 243.675 105.023 244.539C104.602 244.921 104.188 245.403 104.031 245.966ZM131.489 257.176C129.664 257.515 127.64 256.569 126.244 255.325C125.379 254.491 124.729 253.189 124.837 251.98C124.948 250.821 125.764 249.708 126.598 248.843C127.337 248.036 131.322 243.878 132.123 243.217C129.254 241.034 126.385 238.852 123.837 236.295C123.08 235.552 122.319 234.76 121.749 233.852C121.064 232.754 120.855 231.319 121.104 229.999C121.591 227.21 124.52 223.633 127.398 223.313C128.14 223.206 128.901 223.348 129.575 223.647C131.645 224.539 137.098 231.077 138.533 232.819C140.462 229.919 141.187 226.311 143.014 223.369C143.194 223.105 143.423 222.838 143.657 222.62C144.407 221.962 145.593 221.771 146.604 221.894C148.773 222.128 151.665 223.958 151.932 226.14C152.073 227.33 151.663 228.512 151.142 229.553C149.672 232.567 147.256 235.004 145.414 237.747C147.453 239.542 153.141 244.561 153.446 247.24C153.637 249.077 152.936 251.032 151.844 252.466C151.029 253.579 149.861 254.669 148.526 254.872C147.638 255.04 146.712 254.71 145.977 254.266C143.303 252.669 141.495 249.955 139.368 247.666C138.457 249.487 137.335 251.174 136.163 252.865C135.397 253.974 134.536 255.141 133.506 256.071C132.947 256.614 132.231 257.069 131.489 257.176ZM194.039 251.24C192.849 251.381 191.59 251.277 190.407 250.867C189.742 250.668 189.061 250.27 188.567 249.707C187.581 248.582 187.447 246.841 187.284 245.352C185.776 245.267 184.18 245.339 182.642 245.507C182.687 246.754 182.84 248.094 182.376 249.23C181.951 250.213 181.013 251.036 180.049 251.51C176.903 252.901 172.95 252.253 171.467 249.214C170.098 246.366 170.287 242.949 170.296 239.796C170.313 236.092 170.227 232.346 170.795 228.65C171.366 225.003 172.722 221.147 175.433 218.638C176.972 217.169 179.05 216.209 181.162 215.698C183.129 215.247 185.276 215.183 187.304 215.528C188.678 215.823 189.975 216.425 191.137 217.236C193.15 218.684 194.756 220.712 195.922 222.875C197.161 225.332 197.921 228.076 198.379 230.793C199.035 235.446 199.642 240.104 199.448 244.772C199.367 246.329 199.202 248.093 198.245 249.317C197.234 250.495 195.577 251.072 194.039 251.24ZM182.235 231.678C182.069 234.092 182.007 236.549 182.193 238.986C183.77 238.666 185.45 238.387 187.061 238.514C186.97 235.368 186.929 232.219 186.491 229.1C186.373 228.209 186.052 227.283 185.451 226.628C185.179 226.349 184.808 226.077 184.41 226.107C183.461 226.13 182.81 227.43 182.63 228.345C182.362 229.416 182.3 230.572 182.235 231.678ZM214.748 252.008C213.365 255.516 209.327 257.026 205.907 255.486C204.61 254.885 203.363 253.629 202.954 252.209C202.679 251.23 202.745 250.124 202.967 249.106C203.55 246.259 203.62 243.252 203.396 240.317C203.065 235.338 201.992 230.467 201.512 225.5C201.336 223.862 200.817 222.3 200.894 220.693C200.971 219.737 201.346 218.757 201.993 218.057C202.732 217.25 203.85 216.814 204.875 216.486C206.196 216.084 207.581 215.878 208.939 215.975C209.49 215.983 210.099 216.086 210.619 216.347C211.243 216.649 211.789 217.258 212.042 217.939C212.577 219.049 212.726 220.339 212.821 221.582C214.115 220.182 215.673 218.962 217.414 218.179C218.623 217.636 220.001 217.33 221.356 217.377C222.511 217.438 223.644 217.852 224.642 218.476C225.958 219.326 226.96 220.651 227.721 222.094C229.541 225.607 229.929 230.031 229.281 233.983C228.932 235.962 228.235 237.966 227.113 239.653C225.815 241.654 223.736 243.264 221.501 244.136C220.625 244.453 219.691 244.675 218.746 244.747C217.1 244.823 215.505 244.244 214.005 243.608C214.322 245.135 214.785 246.601 215.002 248.136C215.2 249.421 215.257 250.818 214.748 252.008ZM215.98 234.1C216.688 234.196 217.404 233.741 217.813 233.209C219.103 231.76 219.38 229.487 219.182 227.551C219.014 226.012 218.23 224.271 216.703 224.588C215.571 224.825 214.663 226.045 214.246 227.128C213.575 228.83 213.44 230.992 214.213 232.584C214.568 233.308 215.222 234.008 215.98 234.1ZM246.969 246.441C244.34 246.742 241.462 246.412 239.075 245.293C237.675 244.65 236.355 243.75 235.365 242.575C234.102 241.12 233.17 239.39 232.531 237.588C231.251 233.933 230.985 229.8 231.591 225.951C231.94 223.973 232.538 221.975 233.66 220.288C234.958 218.288 236.994 216.781 239.245 216.108C242.716 215.042 246.359 214.263 249.979 214.487C252.592 214.637 254.93 215.759 256.773 217.62C258.349 219.251 259.462 221.367 260.127 223.518C261.353 227.777 261.324 232.633 259.738 236.758C258.735 239.336 257.019 241.769 254.845 243.437C252.625 245.158 249.751 246.178 246.969 246.441ZM245.122 234.723C246.855 235.792 248.922 234.683 250.043 232.996C251.878 230.153 251.225 226.2 248.164 224.783C247.644 224.523 247.089 224.465 246.546 224.557C245.953 224.652 245.424 224.943 245.003 225.325C242.151 227.945 241.866 232.721 245.122 234.723ZM278.364 245.491C276.332 245.746 274.132 245.764 272.138 245.216C270.294 244.657 268.42 243.699 267.016 242.356C265.987 241.333 265.142 240.097 264.591 238.788C263.234 235.439 262.337 231.555 262.912 227.958C263.315 225.376 263.917 222.778 265.035 220.39C266.024 218.263 267.467 216.201 269.412 214.802C271.019 213.578 273.059 212.771 275.084 212.416C276.763 212.138 278.551 211.951 280.146 212.529C281.175 212.901 282.078 213.583 282.931 214.268C284.059 215.282 285.004 216.511 285.562 217.92C285.749 218.406 286.116 220.579 286.154 221.077C286.145 222.929 286.037 224.788 285.47 226.533C285.198 227.555 284.781 228.637 283.923 229.203C283.02 229.823 281.822 229.864 280.77 229.845C279.863 229.764 278.857 229.691 278.118 229.197C277.591 228.837 277.189 228.167 277.094 227.574C276.845 226.292 277.091 224.922 276.992 223.629C277 223.078 276.885 222.236 276.327 222.129C275.47 222.044 274.654 223.157 274.313 223.934C273.635 225.537 273.328 227.412 273.412 229.157C273.496 230.251 273.732 231.384 274.252 232.295C274.596 232.869 275.132 233.328 275.752 233.581C276.372 233.834 277.068 233.781 277.761 233.678C279.398 233.502 280.998 232.83 282.697 232.8C283.543 232.735 284.507 232.911 285.245 233.405C285.77 233.716 286.114 234.29 286.408 234.868C286.836 235.886 287.069 236.969 287.203 238.059C287.317 238.901 287.29 239.854 286.949 240.631C286.405 242.023 285.188 243.117 283.94 243.813C282.21 244.746 280.296 245.243 278.364 245.491ZM315.342 240.61C313.524 241.7 310.926 241.749 308.963 240.948C307.773 240.439 306.79 239.363 306.155 238.261C304.724 239.821 302.71 240.976 300.655 241.584C298.359 242.31 295.719 242.462 293.496 241.531C292.513 241.106 291.556 240.378 290.891 239.529C289.904 238.403 289.338 236.895 289.174 235.407C288.946 233.072 289.613 230.67 291.022 228.81C292.297 227.162 294.218 226.114 296.105 225.269C297.846 224.486 299.702 223.893 301.383 222.964C301.865 222.727 302.294 222.444 302.718 222.111C303.427 221.557 304.15 220.551 303.645 219.839C302.865 218.798 300.703 219.313 299.482 219.707C297.779 220.338 296.665 222.124 294.912 222.759C293.504 223.317 291.346 222.581 290.497 221.295C289.816 220.246 289.415 218.926 289.523 217.717C289.665 216.305 290.515 214.989 291.441 214.017C292.923 212.453 294.833 211.256 296.88 210.549C298.924 209.792 301.105 209.525 303.309 209.557C305.41 209.546 307.58 209.781 309.542 210.581C310.468 210.911 311.306 211.397 311.956 212.048C313.746 213.862 314.595 216.449 315.083 218.914C315.755 222.465 315.689 226.173 315.867 229.812C315.939 232.058 316.998 234.129 317.563 236.287C317.708 236.877 317.658 237.531 317.451 238.097C317.13 239.123 316.299 240.037 315.342 240.61ZM300.491 230.938C299.974 232.679 302.603 232.378 303.798 230.986C303.939 230.875 304.222 230.653 304.211 230.504C304.177 229.405 304.147 228.357 304.266 227.297C303.321 228.02 302.318 228.647 301.483 229.511C301.062 229.894 300.649 230.376 300.491 230.938ZM329.664 241.016C328.145 241.433 326.327 241.221 324.916 240.429C324.342 240.122 323.86 239.709 323.474 239.238C322.25 237.63 321.313 235.85 320.617 233.952C319.333 230.248 318.975 226.222 318.824 222.281C318.711 218.837 318.597 215.393 318.939 212.014C319.009 210.958 319.178 209.894 319.45 208.873C319.718 207.801 320.082 206.673 320.878 205.961C321.671 205.2 322.853 204.959 323.993 204.822C327.617 204.445 331.746 206.081 331.679 209.789C331.675 211.04 331.467 212.257 331.26 213.473C330.155 219.963 329.636 226.908 331.424 233.276C331.768 234.5 332.265 235.763 332.413 237.053C332.463 237.7 332.463 238.35 332.21 238.97C331.838 239.999 330.743 240.733 329.664 241.016ZM349.996 247.617C346.268 249.253 341.892 246.986 341.882 242.934C341.894 241.782 342.051 240.569 342.262 239.402C342.65 236.62 343.29 233.869 343.93 231.118C342.867 230.949 341.834 230.528 341.031 229.839C339.432 228.56 338.292 226.746 337.306 224.97C335.214 221.177 333.781 216.833 333.446 212.455C333.328 210.913 334.152 209.249 335.323 208.209C337.708 206.025 341.473 205.537 343.562 207.979C344.223 208.779 344.602 209.801 344.877 210.781C345.58 213.429 345.544 216.234 345.753 218.97C345.788 219.417 345.879 220.611 346.25 220.883C346.46 221.017 346.744 220.795 346.931 220.631C347.299 220.203 348.18 217.983 348.39 217.467C349.563 214.475 352.371 206.705 355.394 205.673C357.002 205.099 358.907 205.154 360.411 205.839C361.497 206.307 362.457 207.084 363.035 208.091C363.551 208.952 363.784 210.035 363.711 211.041C363.615 212.4 363.162 213.685 362.603 214.879C361.523 217.113 359.976 219.133 358.533 221.195C357.185 223.199 356.002 225.391 355.281 227.748C354.488 230.461 354.257 233.331 354.023 236.151C353.807 238.569 353.596 241.037 353.228 243.417C353.093 244.278 352.806 245.1 352.308 245.789C351.768 246.581 350.918 247.246 349.996 247.617ZM379.291 239.422C377.908 242.93 373.87 244.44 370.45 242.9C369.153 242.299 367.906 241.043 367.497 239.623C367.222 238.644 367.288 237.538 367.51 236.52C368.093 233.673 368.163 230.666 367.939 227.731C367.608 222.752 366.535 217.88 366.055 212.913C365.879 211.276 365.36 209.714 365.437 208.107C365.514 207.15 365.889 206.171 366.536 205.471C367.275 204.664 368.392 204.228 369.418 203.9C370.738 203.498 372.124 203.292 373.482 203.389C374.033 203.396 374.642 203.5 375.162 203.76C375.785 204.063 376.332 204.672 376.585 205.353C377.12 206.463 377.269 207.752 377.364 208.996C378.658 207.596 380.216 206.376 381.957 205.592C383.166 205.05 384.544 204.744 385.899 204.791C387.054 204.852 388.187 205.266 389.185 205.89C390.501 206.74 391.503 208.065 392.264 209.508C394.084 213.021 394.472 217.445 393.824 221.397C393.475 223.375 392.778 225.38 391.656 227.067C390.358 229.068 388.279 230.678 386.044 231.55C385.168 231.867 384.234 232.088 383.289 232.161C381.643 232.236 380.048 231.658 378.548 231.022C378.865 232.549 379.327 234.015 379.545 235.549C379.743 236.835 379.8 238.232 379.291 239.422ZM380.523 221.514C381.231 221.61 381.946 221.155 382.356 220.623C383.646 219.174 383.923 216.901 383.725 214.964C383.557 213.426 382.773 211.685 381.246 212.002C380.114 212.238 379.206 213.459 378.789 214.541C378.118 216.244 377.983 218.406 378.756 219.998C379.111 220.721 379.765 221.422 380.523 221.514ZM409.571 235.304C407.539 235.56 405.392 235.624 403.407 235.175C401.876 234.792 400.131 234.225 399.328 232.885C398.296 231.163 398.661 228.083 400.054 226.675C400.472 226.243 400.95 225.956 401.49 225.815C402.32 225.551 403.223 225.582 404.076 225.617C405.033 225.694 408.634 226.319 409.556 225.948C410.478 225.577 409.844 224.475 408.914 224.096C406.852 223.303 404.667 222.87 402.601 222.027C400.481 221.138 398.427 219.794 397.085 217.945C396.025 216.525 395.402 214.922 395.269 213.181C395.102 210.992 395.727 208.692 396.936 206.848C398.273 204.695 400.547 203.02 402.984 202.183C405.085 201.522 407.359 201.148 409.563 201.179C411.621 201.272 413.707 201.713 415.531 202.674C416.737 203.382 417.811 204.351 418.549 205.495C419.524 207.122 419.887 209.246 419.477 211.079C419.293 211.943 418.906 212.774 418.355 213.416C417.803 214.059 416.877 214.38 416.043 214.594C413.923 215.006 411.248 214.71 410.836 212.59C410.733 211.898 410.917 211.033 410.427 210.52C409.609 209.632 408.25 210.186 407.737 211.326C407.312 212.31 407.388 213.955 408.29 214.636C409.407 215.502 410.796 215.996 412.139 216.544C414.369 217.574 416.753 218.643 418.443 220.465C419.48 221.586 420.149 223.136 420.167 224.686C420.197 226.385 419.883 228.161 419.098 229.672C418.355 231.08 417.195 232.269 415.859 233.122C414.003 234.365 411.748 234.987 409.571 235.304ZM442.357 231.946C440.532 232.936 438.427 233.547 436.322 233.508C434.122 233.526 431.773 232.905 429.833 231.753C427.534 230.478 425.576 228.426 424.249 226.125C423.148 224.158 422.475 221.908 422.254 219.673C421.835 215.502 422.342 211.01 424.1 207.172C425.004 205.252 426.313 203.4 427.959 202.024C429.23 200.976 430.669 200.165 432.231 199.645C434.431 198.977 436.823 198.844 439.096 199.12C440.458 199.266 441.79 199.665 442.945 200.377C443.89 200.955 444.705 201.793 445.278 202.75C446.02 203.945 446.429 205.364 446.539 206.807C446.676 208.598 446.365 210.423 445.695 212.126C444.898 214.138 443.646 216.085 442.004 217.512C441.062 218.284 436.928 221.152 435.811 221.588C435.956 222.178 436.101 222.767 436.53 223.134C437.604 224.103 439.204 222.78 440.238 221.9C440.847 221.353 443.496 218.699 444.116 218.301C444.736 217.903 445.524 217.743 446.236 217.889C447.051 218.076 447.743 218.624 448.244 219.286C448.849 219.99 449.124 220.97 449.246 221.912C449.432 223.699 448.831 225.646 447.797 227.176C446.449 229.181 444.47 230.783 442.357 231.946ZM434.275 215.251C434.566 215.779 435.412 215.714 435.997 215.519C437.899 214.874 439.511 211.748 439.608 209.739C439.62 209.238 439.578 208.691 439.299 208.312C438.79 207.55 437.768 207.928 437.007 208.437C436.099 209.007 435.318 209.917 434.943 210.896C434.518 211.88 433.755 214.34 434.275 215.251Z" fill="#222A41"/>
<path d="M547.983 224.517C546.563 224.926 545.017 224.994 543.597 224.752C542.533 224.583 541.409 224.269 540.701 223.522C540.154 222.914 539.936 222.03 539.772 221.192C539.459 219.715 539.391 218.169 539.277 216.676C537.256 216.43 535.186 216.839 533.165 217.244C533.387 218.828 533.558 220.416 533.381 222.031C533.286 222.739 533.037 223.408 532.631 223.99C532.175 224.575 531.459 225.03 530.778 225.282C529.419 225.837 527.881 226.004 526.419 225.866C525.363 225.797 524.196 225.586 523.439 224.843C521.825 223.365 521.384 216.944 521.117 214.763C520.598 209.949 520.524 205.051 520.3 200.164C520.236 198.668 519.864 192.492 520.304 191.057C520.553 190.387 521.009 189.802 521.579 189.408C522.295 188.953 523.171 188.636 524.009 188.472C525.54 188.205 527.182 188.079 528.67 188.566C529.336 188.765 530.005 189.014 530.583 189.37C531.008 189.688 531.294 190.166 531.482 190.652C531.86 191.674 531.898 192.822 531.882 193.924C531.92 195.072 531.858 196.228 531.85 197.429C531.815 198.283 532.196 203.257 532.264 204.153C532.386 205.745 532.458 207.34 532.53 208.936C534.635 208.325 536.919 208.1 539.081 208.235C539.125 204.879 539.318 201.512 539.411 198.152C539.454 196.748 539.559 190.935 540.107 189.592C540.36 188.972 540.865 188.383 541.439 188.039C542.209 187.63 543.089 187.363 543.935 187.298C545.473 187.13 547.172 187.1 548.568 187.694C549.238 187.943 549.862 188.246 550.393 188.655C552.141 189.923 551.301 194.64 551.113 196.756C550.959 198.019 551.048 205.068 550.99 206.273C550.935 209.48 550.877 212.637 550.971 215.832C551.012 217.68 551.21 219.616 550.85 221.445C550.7 222.107 550.405 222.83 549.942 223.316C549.437 223.905 548.717 224.31 547.983 224.517ZM570.241 221.713C567.612 222.014 564.735 221.684 562.348 220.566C560.947 219.922 559.628 219.022 558.637 217.847C557.375 216.393 556.442 214.663 555.804 212.86C554.523 209.205 554.257 205.072 554.864 201.223C555.213 199.245 555.81 197.248 556.932 195.561C558.23 193.56 560.267 192.053 562.517 191.381C565.988 190.315 569.631 189.536 573.251 189.759C575.865 189.909 578.202 191.032 580.046 192.892C581.622 194.523 582.734 196.639 583.399 198.79C584.626 203.05 584.597 207.906 583.011 212.03C582.007 214.609 580.292 217.042 578.118 218.709C575.897 220.43 573.023 221.45 570.241 221.713ZM568.394 209.996C570.127 211.064 572.194 209.955 573.316 208.268C575.15 205.426 574.497 201.473 571.437 200.056C570.916 199.795 570.362 199.737 569.818 199.829C569.225 199.924 568.697 200.215 568.276 200.598C565.424 203.217 565.139 207.993 568.394 209.996ZM612.624 217.871C610.806 218.961 608.207 219.009 606.245 218.209C605.055 217.699 604.072 216.624 603.437 215.521C602.005 217.082 599.992 218.237 597.937 218.844C595.641 219.57 593 219.722 590.778 218.791C589.794 218.366 588.838 217.639 588.173 216.789C587.186 215.664 586.62 214.156 586.456 212.667C586.228 210.333 586.894 207.93 588.303 206.071C589.578 204.422 591.5 203.375 593.387 202.53C595.128 201.746 596.984 201.154 598.664 200.225C599.147 199.987 599.575 199.705 600 199.372C600.708 198.817 601.432 197.811 600.927 197.099C600.147 196.058 597.985 196.574 596.764 196.967C595.061 197.598 593.947 199.385 592.194 200.019C590.785 200.577 588.628 199.841 587.779 198.555C587.098 197.507 586.697 196.186 586.804 194.977C586.947 193.565 587.797 192.249 588.723 191.278C590.205 189.713 592.115 188.516 594.162 187.809C596.206 187.053 598.387 186.786 600.591 186.817C602.692 186.807 604.861 187.041 606.824 187.842C607.75 188.171 608.588 188.657 609.238 189.308C611.028 191.123 611.876 193.71 612.365 196.174C613.037 199.726 612.97 203.433 613.149 207.073C613.22 209.319 614.28 211.389 614.845 213.548C614.99 214.137 614.94 214.792 614.733 215.358C614.411 216.383 613.581 217.297 612.624 217.871ZM597.773 208.199C597.256 209.94 599.885 209.638 601.079 208.246C601.221 208.135 601.504 207.913 601.493 207.764C601.459 206.666 601.429 205.617 601.548 204.557C600.602 205.28 599.599 205.907 598.765 206.772C598.344 207.154 597.93 207.636 597.773 208.199ZM625.231 219.408C623.406 219.748 621.382 218.802 619.986 217.558C619.121 216.723 618.471 215.422 618.579 214.213C618.69 213.054 619.506 211.94 620.341 211.076C621.079 210.269 625.065 206.111 625.865 205.449C622.996 203.267 620.127 201.085 617.579 198.528C616.822 197.785 616.061 196.992 615.491 196.085C614.807 194.987 614.597 193.552 614.846 192.232C615.333 189.442 618.262 185.866 621.14 185.546C621.882 185.439 622.644 185.581 623.317 185.879C625.387 186.772 630.841 193.31 632.275 195.052C634.205 192.152 634.929 188.544 636.756 185.602C636.936 185.338 637.166 185.07 637.399 184.852C638.149 184.194 639.336 184.004 640.346 184.127C642.515 184.361 645.407 186.191 645.674 188.372C645.815 189.563 645.405 190.745 644.885 191.785C643.414 194.8 640.998 197.237 639.157 199.979C641.195 201.775 646.883 206.794 647.188 209.473C647.379 211.309 646.678 213.265 645.587 214.699C644.771 215.812 643.603 216.902 642.268 217.104C641.38 217.272 640.454 216.943 639.72 216.499C637.046 214.902 635.237 212.188 633.11 209.899C632.199 211.72 631.077 213.407 629.905 215.098C629.139 216.207 628.278 217.374 627.248 218.303C626.689 218.847 625.974 219.302 625.231 219.408ZM687.781 213.473C686.591 213.614 685.332 213.51 684.15 213.1C683.484 212.901 682.803 212.503 682.31 211.94C681.323 210.815 681.19 209.073 681.026 207.585C679.518 207.5 677.922 207.572 676.384 207.74C676.429 208.987 676.582 210.327 676.118 211.463C675.693 212.446 674.755 213.268 673.791 213.742C670.645 215.134 666.692 214.486 665.209 211.447C663.84 208.599 664.029 205.182 664.038 202.029C664.055 198.325 663.969 194.579 664.537 190.883C665.108 187.236 666.465 183.38 669.175 180.871C670.714 179.402 672.792 178.442 674.905 177.93C676.872 177.48 679.018 177.416 681.046 177.761C682.42 178.056 683.717 178.657 684.88 179.469C686.892 180.916 688.498 182.945 689.664 185.108C690.903 187.565 691.663 190.309 692.121 193.026C692.777 197.679 693.384 202.336 693.191 207.005C693.11 208.562 692.944 210.326 691.987 211.55C690.976 212.728 689.319 213.305 687.781 213.473ZM675.977 193.91C675.811 196.325 675.749 198.782 675.935 201.219C677.512 200.898 679.192 200.62 680.803 200.747C680.712 197.601 680.672 194.452 680.233 191.333C680.115 190.442 679.794 189.515 679.193 188.861C678.922 188.581 678.551 188.31 678.153 188.34C677.204 188.363 676.553 189.663 676.372 190.578C676.104 191.649 676.042 192.805 675.977 193.91ZM708.49 214.241C707.107 217.749 703.069 219.259 699.649 217.719C698.352 217.118 697.105 215.862 696.696 214.442C696.421 213.463 696.487 212.357 696.709 211.339C697.292 208.492 697.362 205.485 697.138 202.55C696.807 197.571 695.734 192.699 695.254 187.732C695.079 186.095 694.559 184.533 694.636 182.926C694.713 181.969 695.088 180.99 695.735 180.29C696.474 179.483 697.592 179.047 698.617 178.718C699.938 178.317 701.323 178.111 702.681 178.207C703.232 178.215 703.841 178.319 704.361 178.579C704.985 178.882 705.532 179.491 705.784 180.172C706.319 181.282 706.468 182.571 706.563 183.815C707.857 182.415 709.415 181.195 711.156 180.411C712.366 179.869 713.743 179.563 715.098 179.609C716.254 179.671 717.386 180.085 718.384 180.709C719.7 181.559 720.702 182.884 721.463 184.327C723.283 187.84 723.672 192.264 723.023 196.216C722.674 198.194 721.977 200.199 720.855 201.886C719.557 203.887 717.478 205.497 715.243 206.369C714.367 206.686 713.433 206.907 712.488 206.98C710.843 207.055 709.247 206.477 707.747 205.841C708.064 207.368 708.527 208.834 708.744 210.368C708.943 211.654 708.999 213.051 708.49 214.241ZM709.722 196.333C710.43 196.429 711.146 195.974 711.555 195.442C712.846 193.992 713.122 191.72 712.924 189.783C712.756 188.245 711.973 186.504 710.446 186.821C709.313 187.057 708.405 188.278 707.988 189.36C707.317 191.063 707.183 193.225 707.955 194.817C708.31 195.54 708.965 196.241 709.722 196.333ZM740.711 208.674C738.082 208.975 735.205 208.645 732.817 207.526C731.417 206.883 730.097 205.983 729.107 204.808C727.845 203.353 726.912 201.623 726.273 199.821C724.993 196.166 724.727 192.033 725.333 188.184C725.682 186.205 726.28 184.208 727.402 182.521C728.7 180.521 730.736 179.014 732.987 178.341C736.458 177.275 740.101 176.496 743.721 176.72C746.334 176.87 748.672 177.992 750.515 179.853C752.091 181.483 753.204 183.6 753.869 185.751C755.095 190.01 755.066 194.866 753.48 198.99C752.477 201.569 750.762 204.002 748.587 205.669C746.367 207.39 743.493 208.411 740.711 208.674ZM738.864 196.956C740.597 198.024 742.664 196.916 743.786 195.229C745.62 192.386 744.967 188.433 741.907 187.016C741.386 186.756 740.831 186.698 740.288 186.79C739.695 186.885 739.167 187.176 738.746 187.558C735.894 190.178 735.608 194.953 738.864 196.956ZM772.106 207.723C770.074 207.979 767.874 207.997 765.881 207.449C764.036 206.889 762.162 205.932 760.758 204.588C759.729 203.566 758.884 202.33 758.334 201.021C756.977 197.672 756.079 193.788 756.654 190.191C757.057 187.608 757.659 185.01 758.778 182.623C759.766 180.496 761.209 178.434 763.154 177.034C764.761 175.811 766.801 175.004 768.826 174.649C770.506 174.371 772.293 174.184 773.888 174.762C774.917 175.134 775.82 175.815 776.673 176.501C777.802 177.515 778.746 178.744 779.304 180.152C779.492 180.638 779.858 182.812 779.896 183.31C779.888 185.162 779.78 187.021 779.213 188.766C778.94 189.787 778.523 190.87 777.665 191.436C776.762 192.056 775.564 192.097 774.512 192.078C773.605 191.997 772.599 191.924 771.861 191.43C771.333 191.07 770.931 190.4 770.836 189.807C770.588 188.525 770.833 187.155 770.734 185.862C770.742 185.311 770.628 184.469 770.069 184.361C769.212 184.277 768.396 185.39 768.055 186.167C767.377 187.77 767.071 189.645 767.154 191.39C767.238 192.484 767.474 193.617 767.994 194.528C768.339 195.102 768.874 195.561 769.494 195.814C770.114 196.067 770.81 196.014 771.503 195.911C773.141 195.735 774.74 195.062 776.439 195.033C777.285 194.968 778.249 195.144 778.988 195.638C779.512 195.948 779.856 196.523 780.15 197.1C780.578 198.119 780.811 199.202 780.945 200.292C781.059 201.134 781.032 202.087 780.691 202.863C780.147 204.256 778.93 205.35 777.682 206.046C775.952 206.979 774.039 207.475 772.106 207.723ZM809.084 202.843C807.266 203.933 804.668 203.982 802.705 203.181C801.515 202.672 800.532 201.596 799.898 200.494C798.466 202.054 796.453 203.209 794.397 203.817C792.101 204.543 789.461 204.695 787.238 203.764C786.255 203.339 785.298 202.611 784.633 201.761C783.646 200.636 783.081 199.128 782.917 197.639C782.688 195.305 783.355 192.902 784.764 191.043C786.039 189.395 787.96 188.347 789.847 187.502C791.588 186.718 793.445 186.126 795.125 185.197C795.607 184.96 796.036 184.677 796.461 184.344C797.169 183.79 797.892 182.784 797.388 182.072C796.607 181.03 794.445 181.546 793.224 181.94C791.521 182.57 790.407 184.357 788.654 184.991C787.246 185.549 785.088 184.814 784.239 183.528C783.558 182.479 783.157 181.159 783.265 179.949C783.407 178.538 784.257 177.222 785.183 176.25C786.665 174.686 788.575 173.489 790.622 172.782C792.666 172.025 794.847 171.758 797.051 171.79C799.152 171.779 801.322 172.013 803.284 172.814C804.21 173.143 805.048 173.63 805.698 174.281C807.488 176.095 808.337 178.682 808.826 181.147C809.498 184.698 809.431 188.406 809.609 192.045C809.681 194.291 810.74 196.362 811.305 198.52C811.451 199.11 811.4 199.764 811.194 200.33C810.872 201.356 810.041 202.27 809.084 202.843ZM794.234 193.171C793.716 194.912 796.345 194.611 797.54 193.218C797.681 193.107 797.965 192.886 797.953 192.736C797.919 191.638 797.889 190.59 798.008 189.53C797.063 190.253 796.06 190.88 795.225 191.744C794.804 192.127 794.391 192.609 794.234 193.171ZM823.406 203.249C821.887 203.665 820.07 203.454 818.658 202.661C818.084 202.355 817.602 201.942 817.216 201.471C815.992 199.863 815.055 198.083 814.36 196.185C813.076 192.48 812.718 188.455 812.566 184.513C812.453 181.069 812.34 177.625 812.682 174.247C812.751 173.191 812.92 172.127 813.192 171.105C813.46 170.034 813.824 168.905 814.62 168.194C815.413 167.433 816.595 167.192 817.736 167.055C821.36 166.678 825.488 168.313 825.421 172.021C825.417 173.273 825.21 174.489 825.002 175.706C823.898 182.195 823.378 189.14 825.166 195.509C825.51 196.733 826.007 197.996 826.156 199.286C826.205 199.932 826.205 200.583 825.952 201.203C825.58 202.232 824.486 202.966 823.406 203.249ZM843.738 209.85C840.011 211.486 835.634 209.219 835.624 205.166C835.636 204.015 835.794 202.802 836.005 201.635C836.392 198.853 837.032 196.102 837.673 193.351C836.609 193.182 835.576 192.761 834.773 192.072C833.174 190.793 832.034 188.979 831.048 187.203C828.956 183.41 827.523 179.066 827.188 174.688C827.07 173.146 827.894 171.482 829.065 170.442C831.45 168.258 835.216 167.769 837.304 170.212C837.965 171.012 838.344 172.034 838.619 173.013C839.322 175.662 839.286 178.466 839.495 181.202C839.53 181.65 839.621 182.844 839.992 183.116C840.203 183.25 840.486 183.028 840.673 182.864C841.041 182.435 841.922 180.216 842.133 179.7C843.305 176.708 846.113 168.937 849.136 167.906C850.744 167.332 852.649 167.387 854.153 168.072C855.239 168.54 856.2 169.317 856.777 170.323C857.293 171.185 857.526 172.268 857.453 173.274C857.357 174.632 856.905 175.918 856.345 177.111C855.265 179.346 853.719 181.365 852.275 183.427C850.927 185.432 849.744 187.624 849.024 189.981C848.23 192.693 848 195.563 847.765 198.383C847.55 200.802 847.338 203.27 846.97 205.65C846.835 206.511 846.548 207.333 846.05 208.022C845.51 208.814 844.661 209.479 843.738 209.85ZM873.033 201.654C871.65 205.163 867.612 206.673 864.192 205.133C862.895 204.532 861.648 203.276 861.239 201.856C860.964 200.876 861.03 199.771 861.252 198.753C861.835 195.906 861.905 192.898 861.681 189.963C861.35 184.985 860.277 180.113 859.797 175.146C859.621 173.508 859.102 171.947 859.179 170.34C859.256 169.383 859.631 168.404 860.278 167.704C861.017 166.897 862.135 166.461 863.16 166.132C864.481 165.731 865.866 165.525 867.224 165.621C867.775 165.629 868.384 165.733 868.904 165.993C869.528 166.296 870.075 166.904 870.327 167.586C870.862 168.696 871.011 169.985 871.106 171.229C872.4 169.829 873.958 168.609 875.699 167.825C876.909 167.282 878.286 166.977 879.641 167.023C880.796 167.085 881.929 167.499 882.927 168.123C884.243 168.973 885.245 170.297 886.006 171.74C887.826 175.254 888.215 179.678 887.566 183.63C887.217 185.608 886.52 187.613 885.398 189.3C884.1 191.301 882.021 192.911 879.786 193.782C878.91 194.1 877.976 194.321 877.031 194.393C875.385 194.469 873.79 193.891 872.29 193.255C872.607 194.782 873.07 196.248 873.287 197.782C873.486 199.068 873.542 200.465 873.033 201.654ZM874.265 183.747C874.973 183.843 875.689 183.388 876.098 182.856C877.389 181.406 877.665 179.133 877.467 177.197C877.299 175.659 876.515 173.917 874.989 174.234C873.856 174.471 872.948 175.691 872.531 176.774C871.86 178.477 871.726 180.639 872.498 182.231C872.853 182.954 873.507 183.655 874.265 183.747ZM903.313 197.537C901.281 197.792 899.134 197.857 897.149 197.408C895.618 197.025 893.874 196.458 893.071 195.118C892.038 193.396 892.403 190.315 893.796 188.908C894.214 188.476 894.692 188.189 895.232 188.047C896.062 187.784 896.965 187.815 897.819 187.85C898.775 187.927 902.376 188.552 903.298 188.181C904.22 187.81 903.586 186.708 902.656 186.329C900.594 185.536 898.409 185.102 896.343 184.26C894.224 183.371 892.169 182.027 890.827 180.178C889.768 178.758 889.145 177.155 889.011 175.413C888.844 173.225 889.469 170.925 890.679 169.081C892.015 166.927 894.289 165.252 896.727 164.415C898.828 163.754 901.101 163.38 903.305 163.412C905.364 163.505 907.449 163.946 909.274 164.907C910.479 165.615 911.554 166.584 912.292 167.728C913.267 169.355 913.629 171.479 913.219 173.312C913.035 174.176 912.648 175.006 912.097 175.649C911.546 176.292 910.619 176.613 909.785 176.827C907.665 177.239 904.99 176.943 904.578 174.823C904.475 174.13 904.659 173.266 904.169 172.753C903.351 171.865 901.992 172.419 901.479 173.559C901.054 174.542 901.13 176.188 902.033 176.869C903.149 177.735 904.538 178.229 905.881 178.777C908.112 179.807 910.495 180.875 912.186 182.698C913.222 183.819 913.891 185.369 913.91 186.919C913.939 188.618 913.625 190.393 912.84 191.905C912.097 193.312 910.937 194.502 909.601 195.355C907.745 196.598 905.491 197.22 903.313 197.537ZM936.1 194.178C934.274 195.169 932.169 195.78 930.064 195.741C927.864 195.759 925.515 195.138 923.575 193.986C921.276 192.71 919.318 190.658 917.991 188.358C916.89 186.391 916.217 184.141 915.996 181.906C915.577 177.735 916.084 173.242 917.842 169.405C918.746 167.485 920.056 165.633 921.702 164.256C922.973 163.208 924.412 162.398 925.973 161.878C928.174 161.209 930.565 161.076 932.838 161.353C934.2 161.499 935.532 161.897 936.687 162.61C937.632 163.188 938.447 164.026 939.02 164.983C939.762 166.177 940.171 167.597 940.281 169.04C940.418 170.831 940.108 172.656 939.437 174.358C938.64 176.371 937.388 178.318 935.746 179.745C934.804 180.517 930.671 183.385 929.553 183.821C929.698 184.41 929.843 185 930.272 185.367C931.347 186.336 932.947 185.012 933.98 184.133C934.589 183.586 937.238 180.931 937.858 180.534C938.478 180.136 939.266 179.976 939.978 180.121C940.793 180.309 941.485 180.857 941.986 181.519C942.591 182.223 942.866 183.203 942.988 184.144C943.175 185.931 942.573 187.879 941.539 189.409C940.191 191.414 938.212 193.016 936.1 194.178ZM928.017 177.484C928.308 178.012 929.154 177.947 929.739 177.752C931.641 177.106 933.254 173.981 933.35 171.972C933.362 171.471 933.32 170.923 933.041 170.544C932.532 169.783 931.51 170.161 930.749 170.67C929.842 171.239 929.061 172.15 928.685 173.129C928.26 174.112 927.497 176.573 928.017 177.484Z" fill="#222A41"/>
<path d="M1041.72 186.749C1040.3 187.158 1038.76 187.227 1037.34 186.985C1036.28 186.816 1035.15 186.502 1034.44 185.755C1033.9 185.147 1033.68 184.263 1033.51 183.425C1033.2 181.947 1033.13 180.401 1033.02 178.909C1031 178.663 1028.93 179.072 1026.91 179.477C1027.13 181.061 1027.3 182.649 1027.12 184.264C1027.03 184.971 1026.78 185.641 1026.37 186.222C1025.92 186.808 1025.2 187.263 1024.52 187.515C1023.16 188.069 1021.62 188.237 1020.16 188.099C1019.11 188.029 1017.94 187.818 1017.18 187.076C1015.57 185.598 1015.13 179.177 1014.86 176.996C1014.34 172.182 1014.27 167.284 1014.04 162.397C1013.98 160.901 1013.61 154.725 1014.05 153.29C1014.3 152.62 1014.75 152.035 1015.32 151.641C1016.04 151.186 1016.91 150.869 1017.75 150.705C1019.28 150.437 1020.92 150.312 1022.41 150.798C1023.08 150.998 1023.75 151.247 1024.33 151.603C1024.75 151.921 1025.04 152.399 1025.22 152.885C1025.6 153.907 1025.64 155.055 1025.62 156.157C1025.66 157.305 1025.6 158.461 1025.59 159.662C1025.56 160.515 1025.94 165.49 1026.01 166.386C1026.13 167.977 1026.2 169.573 1026.27 171.169C1028.38 170.557 1030.66 170.333 1032.82 170.468C1032.87 167.112 1033.06 163.744 1033.15 160.385C1033.2 158.98 1033.3 153.168 1033.85 151.825C1034.1 151.205 1034.61 150.616 1035.18 150.272C1035.95 149.863 1036.83 149.595 1037.68 149.531C1039.22 149.363 1040.91 149.333 1042.31 149.927C1042.98 150.176 1043.6 150.478 1044.14 150.888C1045.88 152.155 1045.04 156.873 1044.86 158.989C1044.7 160.252 1044.79 167.3 1044.73 168.506C1044.68 171.712 1044.62 174.869 1044.71 178.064C1044.75 179.913 1044.95 181.849 1044.59 183.678C1044.44 184.34 1044.15 185.063 1043.68 185.549C1043.18 186.138 1042.46 186.543 1041.72 186.749ZM1063.98 183.946C1061.35 184.247 1058.48 183.917 1056.09 182.799C1054.69 182.155 1053.37 181.255 1052.38 180.08C1051.12 178.625 1050.18 176.895 1049.55 175.093C1048.27 171.438 1048 167.305 1048.61 163.456C1048.95 161.478 1049.55 159.481 1050.67 157.794C1051.97 155.793 1054.01 154.286 1056.26 153.614C1059.73 152.547 1063.37 151.768 1066.99 151.992C1069.61 152.142 1071.94 153.264 1073.79 155.125C1075.36 156.756 1076.48 158.872 1077.14 161.023C1078.37 165.282 1078.34 170.138 1076.75 174.263C1075.75 176.841 1074.03 179.274 1071.86 180.942C1069.64 182.663 1066.77 183.683 1063.98 183.946ZM1062.14 172.228C1063.87 173.297 1065.94 172.188 1067.06 170.501C1068.89 167.659 1068.24 163.705 1065.18 162.288C1064.66 162.028 1064.1 161.97 1063.56 162.062C1062.97 162.157 1062.44 162.448 1062.02 162.83C1059.17 165.45 1058.88 170.226 1062.14 172.228ZM1106.37 180.104C1104.55 181.193 1101.95 181.242 1099.99 180.441C1098.8 179.932 1097.81 178.856 1097.18 177.754C1095.75 179.315 1093.73 180.469 1091.68 181.077C1089.38 181.803 1086.74 181.955 1084.52 181.024C1083.54 180.599 1082.58 179.872 1081.91 179.022C1080.93 177.896 1080.36 176.388 1080.2 174.9C1079.97 172.566 1080.64 170.163 1082.05 168.304C1083.32 166.655 1085.24 165.607 1087.13 164.762C1088.87 163.979 1090.73 163.386 1092.41 162.457C1092.89 162.22 1093.32 161.937 1093.74 161.605C1094.45 161.05 1095.17 160.044 1094.67 159.332C1093.89 158.291 1091.73 158.807 1090.51 159.2C1088.8 159.831 1087.69 161.617 1085.94 162.252C1084.53 162.81 1082.37 162.074 1081.52 160.788C1080.84 159.739 1080.44 158.419 1080.55 157.21C1080.69 155.798 1081.54 154.482 1082.47 153.51C1083.95 151.946 1085.86 150.749 1087.9 150.042C1089.95 149.285 1092.13 149.018 1094.33 149.05C1096.43 149.039 1098.6 149.274 1100.57 150.074C1101.49 150.404 1102.33 150.89 1102.98 151.541C1104.77 153.355 1105.62 155.943 1106.11 158.407C1106.78 161.958 1106.71 165.666 1106.89 169.305C1106.96 171.552 1108.02 173.622 1108.59 175.781C1108.73 176.37 1108.68 177.024 1108.48 177.591C1108.15 178.616 1107.32 179.53 1106.37 180.104ZM1091.52 170.431C1091 172.172 1093.63 171.871 1094.82 170.479C1094.96 170.368 1095.25 170.146 1095.23 169.997C1095.2 168.899 1095.17 167.85 1095.29 166.79C1094.34 167.513 1093.34 168.14 1092.51 169.005C1092.09 169.387 1091.67 169.869 1091.52 170.431ZM1118.97 181.641C1117.15 181.981 1115.12 181.035 1113.73 179.791C1112.86 178.956 1112.21 177.655 1112.32 176.446C1112.43 175.286 1113.25 174.173 1114.08 173.309C1114.82 172.502 1118.81 168.344 1119.61 167.682C1116.74 165.5 1113.87 163.318 1111.32 160.76C1110.56 160.018 1109.8 159.225 1109.23 158.318C1108.55 157.22 1108.34 155.785 1108.59 154.464C1109.08 151.675 1112 148.099 1114.88 147.778C1115.62 147.672 1116.39 147.813 1117.06 148.112C1119.13 149.005 1124.58 155.543 1126.02 157.284C1127.95 154.385 1128.67 150.777 1130.5 147.835C1130.68 147.571 1130.91 147.303 1131.14 147.085C1131.89 146.427 1133.08 146.236 1134.09 146.359C1136.26 146.594 1139.15 148.424 1139.42 150.605C1139.56 151.795 1139.15 152.978 1138.63 154.018C1137.16 157.033 1134.74 159.469 1132.9 162.212C1134.94 164.008 1140.63 169.027 1140.93 171.705C1141.12 173.542 1140.42 175.497 1139.33 176.932C1138.51 178.045 1137.35 179.135 1136.01 179.337C1135.12 179.505 1134.2 179.176 1133.46 178.732C1130.79 177.135 1128.98 174.421 1126.85 172.132C1125.94 173.953 1124.82 175.64 1123.65 177.331C1122.88 178.44 1122.02 179.607 1120.99 180.536C1120.43 181.079 1119.72 181.534 1118.97 181.641ZM1181.52 175.706C1180.33 175.847 1179.07 175.743 1177.89 175.333C1177.23 175.134 1176.55 174.736 1176.05 174.173C1175.06 173.047 1174.93 171.306 1174.77 169.818C1173.26 169.733 1171.66 169.805 1170.13 169.973C1170.17 171.22 1170.32 172.559 1169.86 173.696C1169.44 174.679 1168.5 175.501 1167.53 175.975C1164.39 177.367 1160.43 176.718 1158.95 173.68C1157.58 170.832 1157.77 167.415 1157.78 164.262C1157.8 160.558 1157.71 156.812 1158.28 153.115C1158.85 149.469 1160.21 145.612 1162.92 143.103C1164.46 141.635 1166.53 140.675 1168.65 140.163C1170.61 139.712 1172.76 139.648 1174.79 139.994C1176.16 140.289 1177.46 140.89 1178.62 141.702C1180.63 143.149 1182.24 145.178 1183.41 147.34C1184.65 149.798 1185.41 152.542 1185.86 155.259C1186.52 159.912 1187.13 164.569 1186.93 169.237C1186.85 170.795 1186.69 172.559 1185.73 173.783C1184.72 174.961 1183.06 175.538 1181.52 175.706ZM1169.72 156.143C1169.55 158.558 1169.49 161.014 1169.68 163.452C1171.25 163.131 1172.93 162.853 1174.55 162.98C1174.45 159.834 1174.41 156.685 1173.98 153.566C1173.86 152.674 1173.54 151.748 1172.94 151.094C1172.66 150.814 1172.29 150.542 1171.89 150.573C1170.95 150.595 1170.29 151.896 1170.11 152.811C1169.85 153.882 1169.78 155.037 1169.72 156.143ZM1202.23 176.473C1200.85 179.982 1196.81 181.492 1193.39 179.952C1192.09 179.351 1190.85 178.095 1190.44 176.675C1190.16 175.695 1190.23 174.589 1190.45 173.572C1191.03 170.725 1191.1 167.717 1190.88 164.782C1190.55 159.804 1189.48 154.932 1189 149.965C1188.82 148.327 1188.3 146.766 1188.38 145.159C1188.46 144.202 1188.83 143.223 1189.48 142.523C1190.22 141.716 1191.33 141.28 1192.36 140.951C1193.68 140.55 1195.07 140.344 1196.42 140.44C1196.97 140.448 1197.58 140.552 1198.1 140.812C1198.73 141.115 1199.27 141.723 1199.53 142.405C1200.06 143.515 1200.21 144.804 1200.31 146.048C1201.6 144.648 1203.16 143.428 1204.9 142.644C1206.11 142.101 1207.49 141.796 1208.84 141.842C1210 141.904 1211.13 142.318 1212.13 142.942C1213.44 143.792 1214.44 145.116 1215.21 146.559C1217.03 150.073 1217.41 154.497 1216.77 158.449C1216.42 160.427 1215.72 162.432 1214.6 164.119C1213.3 166.12 1211.22 167.73 1208.99 168.601C1208.11 168.919 1207.18 169.14 1206.23 169.212C1204.58 169.288 1202.99 168.71 1201.49 168.074C1201.81 169.601 1202.27 171.067 1202.49 172.601C1202.68 173.887 1202.74 175.284 1202.23 176.473ZM1203.46 158.566C1204.17 158.662 1204.89 158.207 1205.3 157.675C1206.59 156.225 1206.86 153.952 1206.67 152.016C1206.5 150.478 1205.71 148.736 1204.19 149.053C1203.05 149.29 1202.15 150.51 1201.73 151.593C1201.06 153.296 1200.92 155.458 1201.7 157.05C1202.05 157.773 1202.71 158.474 1203.46 158.566ZM1234.45 170.906C1231.82 171.208 1228.95 170.877 1226.56 169.759C1225.16 169.116 1223.84 168.216 1222.85 167.041C1221.59 165.586 1220.65 163.856 1220.02 162.053C1218.74 158.398 1218.47 154.266 1219.08 150.416C1219.42 148.438 1220.02 146.441 1221.14 144.754C1222.44 142.753 1224.48 141.247 1226.73 140.574C1230.2 139.508 1233.84 138.729 1237.46 138.952C1240.08 139.103 1242.41 140.225 1244.26 142.085C1245.83 143.716 1246.95 145.833 1247.61 147.983C1248.84 152.243 1248.81 157.099 1247.22 161.223C1246.22 163.802 1244.5 166.235 1242.33 167.902C1240.11 169.623 1237.24 170.644 1234.45 170.906ZM1232.61 159.189C1234.34 160.257 1236.41 159.148 1237.53 157.461C1239.36 154.619 1238.71 150.666 1235.65 149.249C1235.13 148.988 1234.57 148.931 1234.03 149.022C1233.44 149.118 1232.91 149.408 1232.49 149.791C1229.64 152.411 1229.35 157.186 1232.61 159.189ZM1265.85 169.956C1263.82 170.212 1261.62 170.23 1259.62 169.682C1257.78 169.122 1255.9 168.165 1254.5 166.821C1253.47 165.799 1252.63 164.563 1252.08 163.254C1250.72 159.905 1249.82 156.021 1250.4 152.424C1250.8 149.841 1251.4 147.243 1252.52 144.856C1253.51 142.729 1254.95 140.667 1256.9 139.267C1258.5 138.043 1260.54 137.237 1262.57 136.882C1264.25 136.603 1266.03 136.417 1267.63 136.995C1268.66 137.367 1269.56 138.048 1270.42 138.733C1271.54 139.748 1272.49 140.977 1273.05 142.385C1273.23 142.871 1273.6 145.045 1273.64 145.542C1273.63 147.394 1273.52 149.254 1272.95 150.999C1272.68 152.02 1272.26 153.103 1271.41 153.669C1270.5 154.288 1269.31 154.33 1268.25 154.31C1267.35 154.23 1266.34 154.157 1265.6 153.663C1265.07 153.303 1264.67 152.633 1264.58 152.04C1264.33 150.758 1264.58 149.388 1264.48 148.094C1264.48 147.543 1264.37 146.702 1263.81 146.594C1262.95 146.51 1262.14 147.623 1261.8 148.399C1261.12 150.002 1260.81 151.877 1260.9 153.622C1260.98 154.717 1261.22 155.849 1261.74 156.76C1262.08 157.335 1262.62 157.794 1263.24 158.047C1263.86 158.3 1264.55 158.246 1265.24 158.143C1266.88 157.968 1268.48 157.295 1270.18 157.265C1271.03 157.201 1271.99 157.377 1272.73 157.871C1273.25 158.181 1273.6 158.755 1273.89 159.333C1274.32 160.351 1274.55 161.434 1274.69 162.525C1274.8 163.367 1274.77 164.32 1274.43 165.096C1273.89 166.489 1272.67 167.583 1271.42 168.279C1269.69 169.212 1267.78 169.708 1265.85 169.956ZM1302.83 165.076C1301.01 166.166 1298.41 166.214 1296.45 165.414C1295.26 164.904 1294.27 163.829 1293.64 162.726C1292.21 164.287 1290.19 165.442 1288.14 166.049C1285.84 166.775 1283.2 166.927 1280.98 165.997C1280 165.571 1279.04 164.844 1278.38 163.994C1277.39 162.869 1276.82 161.361 1276.66 159.872C1276.43 157.538 1277.1 155.135 1278.51 153.276C1279.78 151.627 1281.7 150.58 1283.59 149.735C1285.33 148.951 1287.19 148.359 1288.87 147.43C1289.35 147.193 1289.78 146.91 1290.2 146.577C1290.91 146.022 1291.63 145.016 1291.13 144.304C1290.35 143.263 1288.19 143.779 1286.97 144.173C1285.26 144.803 1284.15 146.59 1282.4 147.224C1280.99 147.782 1278.83 147.047 1277.98 145.76C1277.3 144.712 1276.9 143.391 1277.01 142.182C1277.15 140.77 1278 139.454 1278.93 138.483C1280.41 136.918 1282.32 135.722 1284.36 135.014C1286.41 134.258 1288.59 133.991 1290.79 134.022C1292.89 134.012 1295.06 134.246 1297.03 135.047C1297.95 135.376 1298.79 135.863 1299.44 136.513C1301.23 138.328 1302.08 140.915 1302.57 143.379C1303.24 146.931 1303.17 150.639 1303.35 154.278C1303.42 156.524 1304.48 158.595 1305.05 160.753C1305.19 161.342 1305.14 161.997 1304.94 162.563C1304.61 163.588 1303.78 164.502 1302.83 165.076ZM1287.98 155.404C1287.46 157.145 1290.09 156.844 1291.28 155.451C1291.42 155.34 1291.71 155.118 1291.7 154.969C1291.66 153.871 1291.63 152.822 1291.75 151.763C1290.8 152.485 1289.8 153.113 1288.97 153.977C1288.55 154.359 1288.13 154.841 1287.98 155.404ZM1317.15 165.482C1315.63 165.898 1313.81 165.687 1312.4 164.894C1311.83 164.588 1311.34 164.174 1310.96 163.703C1309.73 162.096 1308.8 160.316 1308.1 158.418C1306.82 154.713 1306.46 150.687 1306.31 146.746C1306.19 143.302 1306.08 139.858 1306.42 136.48C1306.49 135.423 1306.66 134.36 1306.93 133.338C1307.2 132.267 1307.57 131.138 1308.36 130.427C1309.15 129.666 1310.34 129.425 1311.48 129.288C1315.1 128.911 1319.23 130.546 1319.16 134.254C1319.16 135.505 1318.95 136.722 1318.74 137.939C1317.64 144.428 1317.12 151.373 1318.91 157.741C1319.25 158.966 1319.75 160.229 1319.9 161.519C1319.95 162.165 1319.95 162.816 1319.69 163.436C1319.32 164.465 1318.23 165.199 1317.15 165.482ZM1337.48 172.083C1333.75 173.719 1329.38 171.452 1329.37 167.399C1329.38 166.247 1329.54 165.035 1329.75 163.867C1330.13 161.086 1330.77 158.335 1331.41 155.584C1330.35 155.415 1329.32 154.994 1328.51 154.304C1326.92 153.026 1325.78 151.211 1324.79 149.435C1322.7 145.642 1321.27 141.299 1320.93 136.921C1320.81 135.379 1321.64 133.715 1322.81 132.674C1325.19 130.49 1328.96 130.002 1331.05 132.445C1331.71 133.245 1332.09 134.266 1332.36 135.246C1333.06 137.894 1333.03 140.699 1333.24 143.435C1333.27 143.883 1333.36 145.077 1333.73 145.349C1333.94 145.483 1334.23 145.261 1334.42 145.096C1334.78 144.668 1335.66 142.449 1335.87 141.933C1337.05 138.941 1339.86 131.17 1342.88 130.138C1344.49 129.565 1346.39 129.619 1347.9 130.305C1348.98 130.772 1349.94 131.55 1350.52 132.556C1351.04 133.417 1351.27 134.5 1351.2 135.507C1351.1 136.865 1350.65 138.151 1350.09 139.344C1349.01 141.579 1347.46 143.598 1346.02 145.66C1344.67 147.665 1343.49 149.857 1342.77 152.214C1341.97 154.926 1341.74 157.796 1341.51 160.616C1341.29 163.034 1341.08 165.502 1340.71 167.882C1340.58 168.743 1340.29 169.566 1339.79 170.254C1339.25 171.046 1338.4 171.712 1337.48 172.083ZM1366.77 163.887C1365.39 167.396 1361.35 168.905 1357.93 167.366C1356.64 166.764 1355.39 165.509 1354.98 164.089C1354.71 163.109 1354.77 162.003 1354.99 160.986C1355.58 158.139 1355.65 155.131 1355.42 152.196C1355.09 147.218 1354.02 142.346 1353.54 137.379C1353.36 135.741 1352.84 134.18 1352.92 132.573C1353 131.616 1353.37 130.637 1354.02 129.937C1354.76 129.129 1355.88 128.694 1356.9 128.365C1358.22 127.964 1359.61 127.758 1360.97 127.854C1361.52 127.862 1362.13 127.966 1362.65 128.226C1363.27 128.529 1363.82 129.137 1364.07 129.818C1364.6 130.928 1364.75 132.218 1364.85 133.462C1366.14 132.062 1367.7 130.842 1369.44 130.058C1370.65 129.515 1372.03 129.21 1373.38 129.256C1374.54 129.318 1375.67 129.732 1376.67 130.356C1377.99 131.206 1378.99 132.53 1379.75 133.973C1381.57 137.487 1381.96 141.91 1381.31 145.863C1380.96 147.841 1380.26 149.846 1379.14 151.533C1377.84 153.534 1375.76 155.144 1373.53 156.015C1372.65 156.332 1371.72 156.554 1370.77 156.626C1369.13 156.702 1367.53 156.124 1366.03 155.488C1366.35 157.015 1366.81 158.48 1367.03 160.015C1367.23 161.301 1367.28 162.697 1366.77 163.887ZM1368.01 145.98C1368.72 146.076 1369.43 145.621 1369.84 145.089C1371.13 143.639 1371.41 141.366 1371.21 139.43C1371.04 137.892 1370.26 136.15 1368.73 136.467C1367.6 136.704 1366.69 137.924 1366.27 139.007C1365.6 140.709 1365.47 142.871 1366.24 144.464C1366.6 145.187 1367.25 145.887 1368.01 145.98ZM1397.06 159.77C1395.02 160.025 1392.88 160.089 1390.89 159.641C1389.36 159.258 1387.62 158.69 1386.81 157.351C1385.78 155.628 1386.15 152.548 1387.54 151.141C1387.96 150.708 1388.43 150.422 1388.97 150.28C1389.8 150.017 1390.71 150.048 1391.56 150.082C1392.52 150.159 1396.12 150.785 1397.04 150.414C1397.96 150.043 1397.33 148.941 1396.4 148.562C1394.34 147.769 1392.15 147.335 1390.09 146.492C1387.97 145.604 1385.91 144.26 1384.57 142.411C1383.51 140.991 1382.89 139.387 1382.75 137.646C1382.59 135.457 1383.21 133.158 1384.42 131.314C1385.76 129.16 1388.03 127.485 1390.47 126.648C1392.57 125.987 1394.84 125.613 1397.05 125.645C1399.11 125.737 1401.19 126.178 1403.02 127.14C1404.22 127.848 1405.3 128.817 1406.03 129.961C1407.01 131.588 1407.37 133.712 1406.96 135.544C1406.78 136.409 1406.39 137.239 1405.84 137.882C1405.29 138.524 1404.36 138.846 1403.53 139.059C1401.41 139.472 1398.73 139.176 1398.32 137.056C1398.22 136.363 1398.4 135.499 1397.91 134.986C1397.09 134.097 1395.73 134.652 1395.22 135.792C1394.8 136.775 1394.87 138.421 1395.77 139.102C1396.89 139.967 1398.28 140.462 1399.62 141.009C1401.85 142.04 1404.24 143.108 1405.93 144.93C1406.96 146.052 1407.63 147.602 1407.65 149.152C1407.68 150.851 1407.37 152.626 1406.58 154.137C1405.84 155.545 1404.68 156.735 1403.34 157.587C1401.49 158.83 1399.23 159.453 1397.06 159.77ZM1429.84 156.411C1428.02 157.401 1425.91 158.013 1423.81 157.974C1421.61 157.992 1419.26 157.371 1417.32 156.218C1415.02 154.943 1413.06 152.891 1411.73 150.591C1410.63 148.624 1409.96 146.373 1409.74 144.139C1409.32 139.967 1409.83 135.475 1411.58 131.638C1412.49 129.717 1413.8 127.866 1415.44 126.489C1416.71 125.441 1418.15 124.631 1419.72 124.111C1421.92 123.442 1424.31 123.309 1426.58 123.586C1427.94 123.732 1429.27 124.13 1430.43 124.842C1431.37 125.421 1432.19 126.259 1432.76 127.216C1433.5 128.41 1433.91 129.83 1434.02 131.273C1434.16 133.064 1433.85 134.889 1433.18 136.591C1432.38 138.604 1431.13 140.551 1429.49 141.977C1428.55 142.75 1424.41 145.618 1423.3 146.054C1423.44 146.643 1423.59 147.232 1424.01 147.6C1425.09 148.569 1426.69 147.245 1427.72 146.366C1428.33 145.819 1430.98 143.164 1431.6 142.767C1432.22 142.369 1433.01 142.208 1433.72 142.354C1434.54 142.542 1435.23 143.089 1435.73 143.752C1436.33 144.456 1436.61 145.436 1436.73 146.377C1436.92 148.164 1436.32 150.112 1435.28 151.642C1433.93 153.646 1431.95 155.249 1429.84 156.411ZM1421.76 139.716C1422.05 140.245 1422.9 140.18 1423.48 139.985C1425.38 139.339 1427 136.213 1427.09 134.205C1427.1 133.703 1427.06 133.156 1426.78 132.777C1426.27 132.015 1425.25 132.394 1424.49 132.902C1423.58 133.472 1422.8 134.383 1422.43 135.362C1422 136.345 1421.24 138.805 1421.76 139.716Z" fill="#222A41"/>
<path d="M1535.47 148.982C1534.05 149.391 1532.5 149.459 1531.08 149.218C1530.02 149.049 1528.89 148.735 1528.19 147.988C1527.64 147.379 1527.42 146.495 1527.26 145.657C1526.94 144.18 1526.88 142.634 1526.76 141.142C1524.74 140.896 1522.67 141.305 1520.65 141.709C1520.87 143.294 1521.04 144.882 1520.87 146.496C1520.77 147.204 1520.52 147.874 1520.12 148.455C1519.66 149.041 1518.94 149.496 1518.26 149.748C1516.9 150.302 1515.37 150.47 1513.9 150.331C1512.85 150.262 1511.68 150.051 1510.92 149.308C1509.31 147.831 1508.87 141.41 1508.6 139.228C1508.08 134.414 1508.01 129.516 1507.79 124.63C1507.72 123.134 1507.35 116.957 1507.79 115.523C1508.04 114.853 1508.49 114.268 1509.06 113.874C1509.78 113.419 1510.66 113.102 1511.49 112.937C1513.02 112.67 1514.67 112.545 1516.15 113.031C1516.82 113.231 1517.49 113.48 1518.07 113.836C1518.49 114.153 1518.78 114.632 1518.97 115.118C1519.34 116.14 1519.38 117.288 1519.37 118.39C1519.4 119.538 1519.34 120.693 1519.33 121.895C1519.3 122.748 1519.68 127.723 1519.75 128.618C1519.87 130.21 1519.94 131.806 1520.01 133.402C1522.12 132.79 1524.4 132.565 1526.57 132.7C1526.61 129.344 1526.8 125.977 1526.9 122.618C1526.94 121.213 1527.04 115.401 1527.59 114.058C1527.84 113.438 1528.35 112.849 1528.92 112.505C1529.69 112.096 1530.57 111.828 1531.42 111.764C1532.96 111.596 1534.66 111.566 1536.05 112.16C1536.72 112.409 1537.35 112.711 1537.88 113.121C1539.63 114.388 1538.79 119.106 1538.6 121.222C1538.44 122.485 1538.53 129.533 1538.48 130.739C1538.42 133.945 1538.36 137.102 1538.46 140.297C1538.5 142.146 1538.7 144.082 1538.33 145.911C1538.19 146.573 1537.89 147.296 1537.43 147.782C1536.92 148.371 1536.2 148.776 1535.47 148.982ZM1557.73 146.179C1555.1 146.48 1552.22 146.15 1549.83 145.031C1548.43 144.388 1547.11 143.488 1546.12 142.313C1544.86 140.858 1543.93 139.128 1543.29 137.326C1542.01 133.671 1541.74 129.538 1542.35 125.689C1542.7 123.711 1543.3 121.713 1544.42 120.026C1545.72 118.026 1547.75 116.519 1550 115.846C1553.47 114.78 1557.12 114.001 1560.74 114.225C1563.35 114.375 1565.69 115.497 1567.53 117.358C1569.11 118.988 1570.22 121.105 1570.88 123.256C1572.11 127.515 1572.08 132.371 1570.5 136.495C1569.49 139.074 1567.78 141.507 1565.6 143.175C1563.38 144.896 1560.51 145.916 1557.73 146.179ZM1555.88 134.461C1557.61 135.529 1559.68 134.421 1560.8 132.734C1562.63 129.891 1561.98 125.938 1558.92 124.521C1558.4 124.261 1557.85 124.203 1557.3 124.295C1556.71 124.39 1556.18 124.681 1555.76 125.063C1552.91 127.683 1552.62 132.458 1555.88 134.461ZM1600.11 142.336C1598.29 143.426 1595.69 143.475 1593.73 142.674C1592.54 142.165 1591.56 141.089 1590.92 139.987C1589.49 141.547 1587.48 142.702 1585.42 143.31C1583.13 144.036 1580.49 144.188 1578.26 143.257C1577.28 142.832 1576.32 142.104 1575.66 141.255C1574.67 140.129 1574.1 138.621 1573.94 137.133C1573.71 134.798 1574.38 132.396 1575.79 130.536C1577.06 128.888 1578.98 127.84 1580.87 126.995C1582.61 126.212 1584.47 125.619 1586.15 124.69C1586.63 124.453 1587.06 124.17 1587.48 123.837C1588.19 123.283 1588.92 122.277 1588.41 121.565C1587.63 120.524 1585.47 121.039 1584.25 121.433C1582.55 122.064 1581.43 123.85 1579.68 124.485C1578.27 125.043 1576.11 124.307 1575.26 123.021C1574.58 121.972 1574.18 120.652 1574.29 119.443C1574.43 118.031 1575.28 116.715 1576.21 115.743C1577.69 114.179 1579.6 112.982 1581.65 112.275C1583.69 111.518 1585.87 111.251 1588.08 111.283C1590.18 111.272 1592.35 111.507 1594.31 112.307C1595.23 112.637 1596.07 113.123 1596.72 113.774C1598.51 115.588 1599.36 118.175 1599.85 120.64C1600.52 124.191 1600.46 127.899 1600.63 131.538C1600.71 133.784 1601.76 135.855 1602.33 138.013C1602.47 138.603 1602.42 139.257 1602.22 139.823C1601.9 140.849 1601.07 141.763 1600.11 142.336ZM1585.26 132.664C1584.74 134.405 1587.37 134.104 1588.56 132.712C1588.71 132.601 1588.99 132.379 1588.98 132.23C1588.94 131.131 1588.91 130.083 1589.03 129.023C1588.09 129.746 1587.08 130.373 1586.25 131.237C1585.83 131.62 1585.42 132.102 1585.26 132.664ZM1612.72 143.874C1610.89 144.214 1608.87 143.268 1607.47 142.023C1606.61 141.189 1605.96 139.888 1606.06 138.678C1606.18 137.519 1606.99 136.406 1607.83 135.541C1608.56 134.734 1612.55 130.577 1613.35 129.915C1610.48 127.733 1607.61 125.55 1605.06 122.993C1604.31 122.25 1603.55 121.458 1602.98 120.551C1602.29 119.452 1602.08 118.017 1602.33 116.697C1602.82 113.908 1605.75 110.331 1608.62 110.011C1609.37 109.904 1610.13 110.046 1610.8 110.345C1612.87 111.237 1618.33 117.776 1619.76 119.517C1621.69 116.618 1622.41 113.009 1624.24 110.068C1624.42 109.804 1624.65 109.536 1624.88 109.318C1625.63 108.66 1626.82 108.469 1627.83 108.592C1630 108.826 1632.89 110.657 1633.16 112.838C1633.3 114.028 1632.89 115.21 1632.37 116.251C1630.9 119.266 1628.48 121.702 1626.64 124.445C1628.68 126.24 1634.37 131.259 1634.67 133.938C1634.86 135.775 1634.16 137.73 1633.07 139.165C1632.26 140.278 1631.09 141.368 1629.75 141.57C1628.86 141.738 1627.94 141.409 1627.2 140.964C1624.53 139.368 1622.72 136.654 1620.6 134.365C1619.68 136.186 1618.56 137.873 1617.39 139.563C1616.62 140.673 1615.76 141.84 1614.73 142.769C1614.17 143.312 1613.46 143.767 1612.72 143.874ZM1675.27 137.939C1674.08 138.08 1672.82 137.976 1671.63 137.566C1670.97 137.367 1670.29 136.968 1669.79 136.406C1668.81 135.28 1668.67 133.539 1668.51 132.05C1667 131.966 1665.41 132.038 1663.87 132.205C1663.91 133.453 1664.07 134.792 1663.6 135.928C1663.18 136.912 1662.24 137.734 1661.28 138.208C1658.13 139.6 1654.18 138.951 1652.69 135.912C1651.33 133.065 1651.51 129.648 1651.52 126.495C1651.54 122.791 1651.45 119.044 1652.02 115.348C1652.59 111.702 1653.95 107.845 1656.66 105.336C1658.2 103.867 1660.28 102.908 1662.39 102.396C1664.36 101.945 1666.5 101.881 1668.53 102.226C1669.9 102.522 1671.2 103.123 1672.36 103.935C1674.38 105.382 1675.98 107.411 1677.15 109.573C1678.39 112.03 1679.15 114.774 1679.61 117.491C1680.26 122.145 1680.87 126.802 1680.68 131.47C1680.59 133.028 1680.43 134.792 1679.47 136.016C1678.46 137.194 1676.8 137.771 1675.27 137.939ZM1663.46 118.376C1663.3 120.791 1663.23 123.247 1663.42 125.685C1665 125.364 1666.68 125.085 1668.29 125.212C1668.2 122.067 1668.16 118.918 1667.72 115.799C1667.6 114.907 1667.28 113.981 1666.68 113.326C1666.41 113.047 1666.04 112.775 1665.64 112.806C1664.69 112.828 1664.04 114.129 1663.86 115.043C1663.59 116.115 1663.53 117.27 1663.46 118.376ZM1695.97 138.706C1694.59 142.215 1690.55 143.724 1687.13 142.185C1685.84 141.583 1684.59 140.328 1684.18 138.908C1683.91 137.928 1683.97 136.822 1684.19 135.805C1684.78 132.958 1684.85 129.95 1684.62 127.015C1684.29 122.037 1683.22 117.165 1682.74 112.198C1682.56 110.56 1682.04 108.999 1682.12 107.392C1682.2 106.435 1682.57 105.456 1683.22 104.756C1683.96 103.948 1685.08 103.513 1686.1 103.184C1687.42 102.783 1688.81 102.577 1690.17 102.673C1690.72 102.681 1691.33 102.785 1691.85 103.045C1692.47 103.348 1693.02 103.956 1693.27 104.637C1693.8 105.747 1693.95 107.037 1694.05 108.281C1695.34 106.881 1696.9 105.661 1698.64 104.877C1699.85 104.334 1701.23 104.029 1702.58 104.075C1703.74 104.137 1704.87 104.551 1705.87 105.175C1707.19 106.025 1708.19 107.349 1708.95 108.792C1710.77 112.306 1711.16 116.729 1710.51 120.682C1710.16 122.66 1709.46 124.665 1708.34 126.352C1707.04 128.353 1704.96 129.963 1702.73 130.834C1701.85 131.151 1700.92 131.373 1699.97 131.445C1698.33 131.521 1696.73 130.943 1695.23 130.307C1695.55 131.834 1696.01 133.299 1696.23 134.834C1696.43 136.12 1696.48 137.516 1695.97 138.706ZM1697.21 120.799C1697.91 120.895 1698.63 120.439 1699.04 119.908C1700.33 118.458 1700.61 116.185 1700.41 114.249C1700.24 112.711 1699.46 110.969 1697.93 111.286C1696.8 111.523 1695.89 112.743 1695.47 113.826C1694.8 115.528 1694.67 117.69 1695.44 119.283C1695.8 120.006 1696.45 120.706 1697.21 120.799ZM1728.2 133.139C1725.57 133.44 1722.69 133.11 1720.3 131.992C1718.9 131.348 1717.58 130.448 1716.59 129.273C1715.33 127.819 1714.4 126.089 1713.76 124.286C1712.48 120.631 1712.21 116.498 1712.82 112.649C1713.17 110.671 1713.76 108.674 1714.89 106.987C1716.18 104.986 1718.22 103.479 1720.47 102.807C1723.94 101.741 1727.59 100.962 1731.21 101.185C1733.82 101.335 1736.16 102.458 1738 104.318C1739.58 105.949 1740.69 108.065 1741.35 110.216C1742.58 114.476 1742.55 119.332 1740.97 123.456C1739.96 126.035 1738.25 128.468 1736.07 130.135C1733.85 131.856 1730.98 132.876 1728.2 133.139ZM1726.35 121.422C1728.08 122.49 1730.15 121.381 1731.27 119.694C1733.1 116.852 1732.45 112.899 1729.39 111.482C1728.87 111.221 1728.32 111.164 1727.77 111.255C1727.18 111.351 1726.65 111.641 1726.23 112.024C1723.38 114.644 1723.09 119.419 1726.35 121.422ZM1759.59 132.189C1757.56 132.444 1755.36 132.463 1753.37 131.915C1751.52 131.355 1749.65 130.398 1748.24 129.054C1747.21 128.032 1746.37 126.795 1745.82 125.487C1744.46 122.138 1743.56 118.253 1744.14 114.657C1744.54 112.074 1745.14 109.476 1746.26 107.089C1747.25 104.962 1748.69 102.9 1750.64 101.5C1752.25 100.276 1754.29 99.4697 1756.31 99.1147C1757.99 98.8361 1759.78 98.6493 1761.37 99.2278C1762.4 99.5995 1763.3 100.281 1764.16 100.966C1765.29 101.981 1766.23 103.21 1766.79 104.618C1766.98 105.104 1767.34 107.278 1767.38 107.775C1767.37 109.627 1767.26 111.487 1766.7 113.231C1766.43 114.253 1766.01 115.336 1765.15 115.902C1764.25 116.521 1763.05 116.563 1762 116.543C1761.09 116.462 1760.08 116.389 1759.35 115.895C1758.82 115.535 1758.42 114.866 1758.32 114.272C1758.07 112.99 1758.32 111.621 1758.22 110.327C1758.23 109.776 1758.11 108.934 1757.55 108.827C1756.7 108.742 1755.88 109.856 1755.54 110.632C1754.86 112.235 1754.56 114.11 1754.64 115.855C1754.72 116.95 1754.96 118.082 1755.48 118.993C1755.82 119.567 1756.36 120.027 1756.98 120.28C1757.6 120.532 1758.29 120.479 1758.99 120.376C1760.63 120.201 1762.23 119.528 1763.92 119.498C1764.77 119.433 1765.73 119.61 1766.47 120.104C1767 120.414 1767.34 120.988 1767.64 121.566C1768.06 122.584 1768.3 123.667 1768.43 124.758C1768.54 125.6 1768.52 126.552 1768.18 127.329C1767.63 128.722 1766.41 129.816 1765.17 130.511C1763.44 131.444 1761.52 131.941 1759.59 132.189ZM1796.57 127.309C1794.75 128.399 1792.15 128.447 1790.19 127.647C1789 127.137 1788.02 126.062 1787.38 124.959C1785.95 126.52 1783.94 127.675 1781.88 128.282C1779.59 129.008 1776.95 129.16 1774.72 128.229C1773.74 127.804 1772.78 127.077 1772.12 126.227C1771.13 125.101 1770.57 123.594 1770.4 122.105C1770.17 119.771 1770.84 117.368 1772.25 115.509C1773.52 113.86 1775.44 112.812 1777.33 111.968C1779.07 111.184 1780.93 110.592 1782.61 109.663C1783.09 109.425 1783.52 109.142 1783.95 108.81C1784.65 108.255 1785.38 107.249 1784.87 106.537C1784.09 105.496 1781.93 106.012 1780.71 106.405C1779.01 107.036 1777.89 108.822 1776.14 109.457C1774.73 110.015 1772.57 109.279 1771.72 107.993C1771.04 106.945 1770.64 105.624 1770.75 104.415C1770.89 103.003 1771.74 101.687 1772.67 100.716C1774.15 99.1512 1776.06 97.9543 1778.11 97.2473C1780.15 96.4905 1782.33 96.2236 1784.54 96.2551C1786.64 96.2445 1788.81 96.4789 1790.77 97.2795C1791.7 97.609 1792.53 98.0953 1793.18 98.7461C1794.97 100.561 1795.82 103.148 1796.31 105.612C1796.98 109.164 1796.92 112.871 1797.09 116.511C1797.17 118.757 1798.22 120.827 1798.79 122.986C1798.94 123.575 1798.89 124.229 1798.68 124.796C1798.36 125.821 1797.53 126.735 1796.57 127.309ZM1781.72 117.637C1781.2 119.377 1783.83 119.076 1785.02 117.684C1785.17 117.573 1785.45 117.351 1785.44 117.202C1785.4 116.104 1785.37 115.055 1785.49 113.995C1784.55 114.718 1783.54 115.345 1782.71 116.21C1782.29 116.592 1781.88 117.074 1781.72 117.637ZM1810.89 127.714C1809.37 128.131 1807.55 127.92 1806.14 127.127C1805.57 126.821 1805.09 126.407 1804.7 125.936C1803.48 124.329 1802.54 122.549 1801.84 120.651C1800.56 116.946 1800.2 112.92 1800.05 108.979C1799.94 105.535 1799.82 102.091 1800.17 98.7123C1800.24 97.6562 1800.4 96.5925 1800.68 95.5709C1800.94 94.4996 1801.31 93.371 1802.11 92.6596C1802.9 91.8984 1804.08 91.6578 1805.22 91.5206C1808.84 91.1433 1812.97 92.779 1812.91 96.4869C1812.9 97.7382 1812.69 98.9549 1812.49 100.172C1811.38 106.661 1810.86 113.606 1812.65 119.974C1812.99 121.199 1813.49 122.462 1813.64 123.751C1813.69 124.398 1813.69 125.049 1813.44 125.668C1813.07 126.698 1811.97 127.432 1810.89 127.714ZM1831.22 134.315C1827.5 135.952 1823.12 133.684 1823.11 129.632C1823.12 128.48 1823.28 127.267 1823.49 126.1C1823.88 123.319 1824.52 120.568 1825.16 117.817C1824.09 117.648 1823.06 117.226 1822.26 116.537C1820.66 115.258 1819.52 113.444 1818.53 111.668C1816.44 107.875 1815.01 103.532 1814.67 99.1538C1814.56 97.6117 1815.38 95.9475 1816.55 94.9072C1818.93 92.7232 1822.7 92.2351 1824.79 94.6773C1825.45 95.4773 1825.83 96.4992 1826.1 97.4789C1826.81 100.127 1826.77 102.932 1826.98 105.668C1827.01 106.116 1827.11 107.31 1827.48 107.582C1827.69 107.716 1827.97 107.494 1828.16 107.329C1828.53 106.901 1829.41 104.682 1829.62 104.165C1830.79 101.174 1833.6 93.403 1836.62 92.3711C1838.23 91.7978 1840.13 91.8522 1841.64 92.5378C1842.72 93.0051 1843.68 93.7823 1844.26 94.789C1844.78 95.6502 1845.01 96.7332 1844.94 97.7395C1844.84 99.0979 1844.39 100.383 1843.83 101.577C1842.75 103.811 1841.2 105.831 1839.76 107.893C1838.41 109.897 1837.23 112.09 1836.51 114.446C1835.72 117.159 1835.48 120.029 1835.25 122.849C1835.03 125.267 1834.82 127.735 1834.45 130.115C1834.32 130.976 1834.03 131.799 1833.54 132.487C1833 133.279 1832.15 133.945 1831.22 134.315ZM1860.52 126.12C1859.13 129.628 1855.1 131.138 1851.68 129.598C1850.38 128.997 1849.13 127.741 1848.72 126.322C1848.45 125.342 1848.51 124.236 1848.74 123.218C1849.32 120.372 1849.39 117.364 1849.17 114.429C1848.83 109.45 1847.76 104.579 1847.28 99.6118C1847.11 97.9739 1846.59 96.4125 1846.66 94.8054C1846.74 93.8488 1847.12 92.8693 1847.76 92.1694C1848.5 91.3623 1849.62 90.9265 1850.65 90.5979C1851.97 90.1967 1853.35 89.9906 1854.71 90.0869C1855.26 90.0948 1855.87 90.1983 1856.39 90.4588C1857.01 90.7613 1857.56 91.37 1857.81 92.0512C1858.35 93.1612 1858.5 94.4508 1858.59 95.6944C1859.88 94.2945 1861.44 93.0745 1863.18 92.2908C1864.39 91.7479 1865.77 91.4424 1867.13 91.4889C1868.28 91.5506 1869.41 91.9644 1870.41 92.5885C1871.73 93.4386 1872.73 94.763 1873.49 96.2059C1875.31 99.7195 1875.7 104.143 1875.05 108.096C1874.7 110.074 1874 112.079 1872.88 113.766C1871.58 115.766 1869.51 117.376 1867.27 118.248C1866.39 118.565 1865.46 118.787 1864.52 118.859C1862.87 118.935 1861.27 118.356 1859.78 117.72C1860.09 119.247 1860.55 120.713 1860.77 122.248C1860.97 123.534 1861.03 124.93 1860.52 126.12ZM1861.75 108.212C1862.46 108.308 1863.17 107.853 1863.58 107.322C1864.87 105.872 1865.15 103.599 1864.95 101.663C1864.78 100.124 1864 98.383 1862.47 98.6999C1861.34 98.9367 1860.43 100.157 1860.02 101.24C1859.35 102.942 1859.21 105.104 1859.98 106.696C1860.34 107.42 1860.99 108.12 1861.75 108.212ZM1890.8 122.003C1888.77 122.258 1886.62 122.322 1884.63 121.874C1883.1 121.49 1881.36 120.923 1880.56 119.584C1879.52 117.861 1879.89 114.781 1881.28 113.373C1881.7 112.941 1882.18 112.654 1882.72 112.513C1883.55 112.249 1884.45 112.28 1885.3 112.315C1886.26 112.392 1889.86 113.017 1890.78 112.647C1891.71 112.276 1891.07 111.174 1890.14 110.794C1888.08 110.001 1885.89 109.568 1883.83 108.725C1881.71 107.837 1879.65 106.493 1878.31 104.644C1877.25 103.224 1876.63 101.62 1876.5 99.879C1876.33 97.6901 1876.95 95.3906 1878.16 93.5468C1879.5 91.393 1881.77 89.718 1884.21 88.881C1886.31 88.2199 1888.59 87.8459 1890.79 87.8774C1892.85 87.9701 1894.93 88.4111 1896.76 89.3723C1897.96 90.0808 1899.04 91.0493 1899.78 92.1938C1900.75 93.8205 1901.11 95.9444 1900.7 97.7771C1900.52 98.6418 1900.13 99.472 1899.58 100.115C1899.03 100.757 1898.1 101.078 1897.27 101.292C1895.15 101.705 1892.48 101.409 1892.06 99.2887C1891.96 98.5961 1892.14 97.7313 1891.65 97.2184C1890.84 96.3303 1889.48 96.8845 1888.96 98.0246C1888.54 99.0079 1888.61 100.653 1889.52 101.335C1890.63 102.2 1892.02 102.694 1893.37 103.242C1895.6 104.272 1897.98 105.341 1899.67 107.163C1900.71 108.285 1901.38 109.835 1901.39 111.385C1901.42 113.084 1901.11 114.859 1900.32 116.37C1899.58 117.778 1898.42 118.968 1897.09 119.82C1895.23 121.063 1892.98 121.686 1890.8 122.003ZM1923.58 118.644C1921.76 119.634 1919.65 120.246 1917.55 120.206C1915.35 120.225 1913 119.604 1911.06 118.451C1908.76 117.176 1906.8 115.124 1905.48 112.824C1904.37 110.856 1903.7 108.606 1903.48 106.371C1903.06 102.2 1903.57 97.7081 1905.33 93.8708C1906.23 91.9503 1907.54 90.0988 1909.19 88.7219C1910.46 87.674 1911.9 86.8634 1913.46 86.3436C1915.66 85.6749 1918.05 85.542 1920.32 85.8185C1921.69 85.9645 1923.02 86.363 1924.17 87.0753C1925.12 87.6535 1925.93 88.4919 1926.51 89.4487C1927.25 90.6429 1927.66 92.0628 1927.77 93.5054C1927.9 95.2963 1927.59 97.1214 1926.92 98.8239C1926.13 100.836 1924.87 102.784 1923.23 104.21C1922.29 104.983 1918.16 107.851 1917.04 108.287C1917.18 108.876 1917.33 109.465 1917.76 109.833C1918.83 110.801 1920.43 109.478 1921.46 108.598C1922.07 108.051 1924.72 105.397 1925.34 104.999C1925.96 104.602 1926.75 104.441 1927.46 104.587C1928.28 104.775 1928.97 105.322 1929.47 105.984C1930.08 106.689 1930.35 107.669 1930.47 108.61C1930.66 110.397 1930.06 112.344 1929.02 113.875C1927.68 115.879 1925.7 117.482 1923.58 118.644ZM1915.5 101.949C1915.79 102.477 1916.64 102.413 1917.22 102.218C1919.13 101.572 1920.74 98.4463 1920.83 96.4374C1920.85 95.9361 1920.8 95.3889 1920.53 95.01C1920.02 94.2483 1919 94.6267 1918.23 95.1353C1917.33 95.705 1916.55 96.6154 1916.17 97.5948C1915.74 98.5781 1914.98 101.038 1915.5 101.949Z" fill="#222A41"/>
</g>
<rect x="-501.159" y="236.099" width="3058.37" height="106.988" rx="53.4938" transform="rotate(-4.37414 -501.159 236.099)" stroke="#222A41" stroke-width="13.3401"/>
</g>
<defs>
<filter id="filter0_d_645_2" x="-503.908" y="0.0917969" width="3354.48" height="380.432" filterUnits="userSpaceOnUse" color-interpolation-filters="sRGB">
<feFlood flood-opacity="0" result="BackgroundImageFix"/>
<feColorMatrix in="SourceAlpha" type="matrix" values="0 0 0 0 0 0 0 0 0 0 0 0 0 0 0 0 0 0 127 0" result="hardAlpha"/>
<feOffset dx="212" dy="31"/>
<feGaussianBlur stdDeviation="2"/>
<feComposite in2="hardAlpha" operator="out"/>
<feColorMatrix type="matrix" values="0 0 0 0 0 0 0 0 0 0 0 0 0 0 0 0 0 0 0.25 0"/>
<feBlend mode="normal" in2="BackgroundImageFix" result="effect1_dropShadow_645_2"/>
<feBlend mode="normal" in="SourceGraphic" in2="effect1_dropShadow_645_2" result="shape"/>
</filter>
<linearGradient id="paint0_linear_645_2" x1="1266.11" y1="58.8539" x2="1267.07" y2="210.157" gradientUnits="userSpaceOnUse">
<stop stop-color="#EEBD01"/>
<stop offset="1" stop-color="#FF9E01"/>
</linearGradient>
<linearGradient id="paint1_linear_645_2" x1="1115.41" y1="240.602" x2="1116.32" y2="391.906" gradientUnits="userSpaceOnUse">
<stop stop-color="#EEBD01"/>
<stop offset="1" stop-color="#FF9E01"/>
</linearGradient>
<clipPath id="clip0_645_2">
<rect x="-262.211" y="60.4929" width="2891.61" height="93.6475" rx="46.8238" transform="rotate(3.50094 -262.211 60.4929)" fill="white"/>
</clipPath>
<clipPath id="clip1_645_2">
<rect x="-494" y="242.241" width="3045.03" height="93.6475" rx="46.8238" transform="rotate(-4.37414 -494 242.241)" fill="white"/>
</clipPath>
</defs>
</svg>
